<svg width="167" height="115" viewBox="0 0 167 115" fill="none" xmlns="http://www.w3.org/2000/svg">
<g opacity="0.1">
<mask id="mask0" mask-type="alpha" maskUnits="userSpaceOnUse" x="0" y="0" width="167" height="115">
<path d="M0 3C0 1.34315 1.34315 0 3 0H164C165.657 0 167 1.34315 167 3V115H0V3Z" fill="#FAFCFF"/>
</mask>
<g mask="url(#mask0)">
<path fill-rule="evenodd" clip-rule="evenodd" d="M103.286 46.2232H112.447V78.2857H103.286C100.753 78.2857 98.7055 80.3331 98.7055 82.8661V142.411H89.5448V96.6071C89.5448 94.0742 87.4973 92.0268 84.9644 92.0268H75.8037V46.2232H84.9644C87.4973 46.2232 89.5448 44.1758 89.5448 41.6428V32.4821H98.7055V41.6428C98.7055 44.1758 100.753 46.2232 103.286 46.2232ZM126.187 105.768H112.446V96.6071H126.187V105.768ZM130.768 124.089H144.509V133.25H130.768V124.089ZM130.768 110.348H144.509V119.509H130.768V110.348ZM130.768 96.6071H144.509V105.768H130.768V96.6071ZM126.187 119.509H112.446V110.348H126.187V119.509ZM126.187 133.25H112.446V124.089H126.187V133.25ZM75.8036 119.509H62.0625V110.348H75.8036V119.509ZM75.8036 133.25H62.0625V124.089H75.8036V133.25ZM57.4823 119.509H43.7412V110.348H57.4823V119.509ZM57.4823 133.25H43.7412V124.089H57.4823V133.25ZM94.125 5C91.5921 5 89.5446 7.04742 89.5446 9.58036V23.3214H84.9643C82.4313 23.3214 80.3839 25.3689 80.3839 27.9018V37.0625H71.2232C68.6903 37.0625 66.6429 39.1099 66.6429 41.6429V92.0268H34.5804C32.0474 92.0268 30 94.0742 30 96.6071V146.991C30 149.524 32.0474 151.571 34.5804 151.571H71.2232H84.9643H103.286H117.027H153.67C156.203 151.571 158.25 149.524 158.25 146.991V82.8661C158.25 80.3331 156.203 78.2857 153.67 78.2857H121.607V41.6429C121.607 39.1099 119.56 37.0625 117.027 37.0625H107.866V27.9018C107.866 25.3689 105.819 23.3214 103.286 23.3214H98.7054V9.58036C98.7054 7.04742 96.6579 5 94.125 5Z" fill="#1B2733"/>
</g>
</g>
</svg>
