<svg width="280" height="289" viewBox="0 0 280 289" fill="none" xmlns="http://www.w3.org/2000/svg">
<path d="M0 20C0 8.9543 8.95431 0 20 0H260C271.046 0 280 8.9543 280 20V269C280 280.046 271.046 289 260 289H20C8.95431 289 0 280.046 0 269V20Z" fill="url(#paint0_linear)"/>
<g opacity="0.08">
<mask id="mask0" mask-type="alpha" maskUnits="userSpaceOnUse" x="0" y="0" width="280" height="289">
<path d="M0 20C0 8.9543 8.95431 0 20 0H260C271.046 0 280 8.9543 280 20V269C280 280.046 271.046 289 260 289H20C8.95431 289 0 280.046 0 269V20Z" fill="url(#paint1_linear)"/>
</mask>
<g mask="url(#mask0)">
<path fill-rule="evenodd" clip-rule="evenodd" d="M-58 251C-58 195.219 -12.7808 150 43 150C98.7808 150 144 195.219 144 251C144 306.781 98.7808 352 43 352H-58V251ZM43 205.091C17.6451 205.091 -2.90909 225.645 -2.90909 251V296.909H43C68.3549 296.909 88.9091 276.355 88.9091 251C88.9091 225.645 68.3549 205.091 43 205.091Z" fill="white"/>
<path fill-rule="evenodd" clip-rule="evenodd" d="M180 53C180 25.3858 202.386 3 230 3C257.614 3 280 25.3858 280 53C280 80.6142 257.614 103 230 103H180V53ZM230 30.2727C217.448 30.2727 207.273 40.4481 207.273 53V75.7273H230C242.552 75.7273 252.727 65.5519 252.727 53C252.727 40.4481 242.552 30.2727 230 30.2727Z" fill="white"/>
</g>
</g>
<g filter="url(#filter0_d)">
<path d="M59.6641 67.4629L62.248 53.8047H66.1899L61.9316 73H57.9502L54.8257 60.1592L51.7012 73H47.7197L43.4614 53.8047H47.4033L50.0005 67.4365L53.1646 53.8047H56.5132L59.6641 67.4629ZM74.2319 73.2637C72.1401 73.2637 70.4351 72.6221 69.1167 71.3389C67.8071 70.0557 67.1523 68.3462 67.1523 66.2104V65.8413C67.1523 64.4087 67.4292 63.1299 67.9829 62.0049C68.5366 60.8711 69.3188 60.001 70.3296 59.3945C71.3491 58.7793 72.5093 58.4717 73.8101 58.4717C75.7612 58.4717 77.2949 59.0869 78.4111 60.3174C79.5361 61.5479 80.0986 63.2925 80.0986 65.5513V67.1069H71.0151C71.1382 68.0386 71.5073 68.7856 72.1226 69.3481C72.7466 69.9106 73.5332 70.1919 74.4824 70.1919C75.9502 70.1919 77.0972 69.6602 77.9233 68.5967L79.7954 70.6929C79.2241 71.5015 78.4507 72.1343 77.4751 72.5913C76.4995 73.0396 75.4185 73.2637 74.2319 73.2637ZM73.7969 61.5566C73.041 61.5566 72.4258 61.8115 71.9512 62.3213C71.4854 62.8311 71.1865 63.5605 71.0547 64.5098H76.3545V64.2065C76.3369 63.3628 76.1084 62.7124 75.6689 62.2554C75.2295 61.7896 74.6055 61.5566 73.7969 61.5566ZM97.2637 73C97.0879 72.6572 96.9604 72.231 96.8813 71.7212C95.9585 72.7495 94.7588 73.2637 93.2822 73.2637C91.8848 73.2637 90.7246 72.8594 89.8018 72.0508C88.8877 71.2422 88.4307 70.2227 88.4307 68.9922C88.4307 67.4805 88.9888 66.3203 90.105 65.5117C91.23 64.7031 92.8516 64.2944 94.9697 64.2856H96.7231V63.4683C96.7231 62.8091 96.5518 62.2817 96.209 61.8862C95.875 61.4907 95.3433 61.293 94.6138 61.293C93.9722 61.293 93.4668 61.4468 93.0977 61.7544C92.7373 62.062 92.5571 62.4839 92.5571 63.02H88.7471C88.7471 62.1938 89.002 61.4292 89.5117 60.7261C90.0215 60.0229 90.7422 59.4736 91.6738 59.0781C92.6055 58.6738 93.6514 58.4717 94.8115 58.4717C96.5693 58.4717 97.9624 58.9155 98.9907 59.8032C100.028 60.6821 100.546 61.9214 100.546 63.521V69.7041C100.555 71.0576 100.744 72.0815 101.113 72.7759V73H97.2637ZM94.1128 70.3501C94.6753 70.3501 95.1938 70.2271 95.6685 69.981C96.1431 69.7261 96.4946 69.3877 96.7231 68.9658V66.5137H95.2993C93.3921 66.5137 92.377 67.1729 92.2539 68.4912L92.2407 68.7153C92.2407 69.1899 92.4077 69.5811 92.7417 69.8887C93.0757 70.1963 93.5327 70.3501 94.1128 70.3501ZM111.489 62.3081C110.97 62.2378 110.513 62.2026 110.118 62.2026C108.676 62.2026 107.731 62.6904 107.283 63.666V73H103.473V58.7354H107.072L107.178 60.436C107.942 59.1265 109.001 58.4717 110.355 58.4717C110.777 58.4717 111.172 58.5288 111.542 58.6431L111.489 62.3081ZM119.636 73.2637C117.544 73.2637 115.839 72.6221 114.521 71.3389C113.211 70.0557 112.557 68.3462 112.557 66.2104V65.8413C112.557 64.4087 112.833 63.1299 113.387 62.0049C113.941 60.8711 114.723 60.001 115.734 59.3945C116.753 58.7793 117.914 58.4717 119.214 58.4717C121.166 58.4717 122.699 59.0869 123.815 60.3174C124.94 61.5479 125.503 63.2925 125.503 65.5513V67.1069H116.419C116.542 68.0386 116.912 68.7856 117.527 69.3481C118.151 69.9106 118.938 70.1919 119.887 70.1919C121.354 70.1919 122.501 69.6602 123.328 68.5967L125.2 70.6929C124.628 71.5015 123.855 72.1343 122.879 72.5913C121.904 73.0396 120.823 73.2637 119.636 73.2637ZM119.201 61.5566C118.445 61.5566 117.83 61.8115 117.355 62.3213C116.89 62.8311 116.591 63.5605 116.459 64.5098H121.759V64.2065C121.741 63.3628 121.513 62.7124 121.073 62.2554C120.634 61.7896 120.01 61.5566 119.201 61.5566ZM147.256 65.9995C147.256 68.2847 146.768 70.0688 145.792 71.3521C144.817 72.6265 143.455 73.2637 141.706 73.2637C140.159 73.2637 138.924 72.6704 138.001 71.4839L137.83 73H134.402V52.75H138.212V60.0142C139.091 58.9858 140.247 58.4717 141.679 58.4717C143.419 58.4717 144.782 59.1133 145.766 60.3965C146.759 61.6709 147.256 63.4683 147.256 65.7886V65.9995ZM143.446 65.7227C143.446 64.2812 143.217 63.231 142.76 62.5718C142.303 61.9038 141.622 61.5698 140.717 61.5698C139.504 61.5698 138.669 62.0664 138.212 63.0596V68.689C138.678 69.6909 139.521 70.1919 140.743 70.1919C141.974 70.1919 142.782 69.5854 143.169 68.3726C143.354 67.7925 143.446 66.9092 143.446 65.7227ZM158.159 71.5498C157.218 72.6924 155.917 73.2637 154.256 73.2637C152.727 73.2637 151.558 72.8242 150.75 71.9453C149.95 71.0664 149.541 69.7788 149.523 68.0825V58.7354H153.333V67.9507C153.333 69.436 154.01 70.1787 155.364 70.1787C156.656 70.1787 157.543 69.7305 158.027 68.834V58.7354H161.85V73H158.264L158.159 71.5498ZM168.745 73H164.922V58.7354H168.745V73ZM164.698 55.0439C164.698 54.4727 164.887 54.0024 165.265 53.6333C165.651 53.2642 166.174 53.0796 166.833 53.0796C167.484 53.0796 168.002 53.2642 168.389 53.6333C168.776 54.0024 168.969 54.4727 168.969 55.0439C168.969 55.624 168.771 56.0986 168.376 56.4678C167.989 56.8369 167.475 57.0215 166.833 57.0215C166.192 57.0215 165.673 56.8369 165.278 56.4678C164.891 56.0986 164.698 55.624 164.698 55.0439ZM175.917 73H172.094V52.75H175.917V73ZM178.475 65.7622C178.475 63.5386 178.971 61.7676 179.964 60.4492C180.966 59.1309 182.333 58.4717 184.064 58.4717C185.453 58.4717 186.6 58.9902 187.505 60.0273V52.75H191.329V73H187.888L187.703 71.4839C186.754 72.6704 185.532 73.2637 184.038 73.2637C182.359 73.2637 181.01 72.6045 179.991 71.2861C178.98 69.959 178.475 68.1177 178.475 65.7622ZM182.285 66.0391C182.285 67.375 182.518 68.3989 182.983 69.1108C183.449 69.8228 184.126 70.1787 185.014 70.1787C186.191 70.1787 187.022 69.6821 187.505 68.689V63.0596C187.031 62.0664 186.209 61.5698 185.04 61.5698C183.203 61.5698 182.285 63.0596 182.285 66.0391ZM198.303 73H194.479V58.7354H198.303V73ZM194.255 55.0439C194.255 54.4727 194.444 54.0024 194.822 53.6333C195.209 53.2642 195.732 53.0796 196.391 53.0796C197.042 53.0796 197.56 53.2642 197.947 53.6333C198.333 54.0024 198.527 54.4727 198.527 55.0439C198.527 55.624 198.329 56.0986 197.934 56.4678C197.547 56.8369 197.033 57.0215 196.391 57.0215C195.75 57.0215 195.231 56.8369 194.835 56.4678C194.449 56.0986 194.255 55.624 194.255 55.0439ZM204.96 58.7354L205.079 60.3833C206.099 59.1089 207.465 58.4717 209.179 58.4717C210.691 58.4717 211.816 58.9155 212.554 59.8032C213.292 60.6909 213.67 62.0181 213.688 63.7847V73H209.878V63.877C209.878 63.0684 209.702 62.4839 209.351 62.1235C208.999 61.7544 208.415 61.5698 207.597 61.5698C206.525 61.5698 205.721 62.0269 205.185 62.9409V73H201.375V58.7354H204.96ZM216.035 65.7622C216.035 63.5737 216.553 61.8115 217.59 60.4756C218.636 59.1396 220.042 58.4717 221.809 58.4717C223.374 58.4717 224.591 59.0078 225.461 60.0801L225.619 58.7354H229.073V72.5254C229.073 73.7734 228.788 74.8589 228.216 75.7817C227.654 76.7046 226.858 77.4077 225.83 77.8911C224.802 78.3745 223.598 78.6162 222.218 78.6162C221.172 78.6162 220.152 78.4053 219.159 77.9834C218.166 77.5703 217.415 77.0342 216.905 76.375L218.592 74.0547C219.542 75.1182 220.693 75.6499 222.046 75.6499C223.057 75.6499 223.844 75.3774 224.406 74.8325C224.969 74.2964 225.25 73.5317 225.25 72.5386V71.7739C224.371 72.7671 223.215 73.2637 221.783 73.2637C220.069 73.2637 218.68 72.5957 217.617 71.2598C216.562 69.915 216.035 68.1353 216.035 65.9204V65.7622ZM219.845 66.0391C219.845 67.3311 220.104 68.3462 220.623 69.0845C221.141 69.814 221.853 70.1787 222.758 70.1787C223.918 70.1787 224.749 69.7437 225.25 68.8735V62.875C224.74 62.0049 223.918 61.5698 222.785 61.5698C221.871 61.5698 221.15 61.9434 220.623 62.6904C220.104 63.4375 219.845 64.5537 219.845 66.0391ZM52.189 105.058C52.189 104.592 51.9561 104.228 51.4902 103.964C51.0332 103.691 50.2949 103.45 49.2754 103.239C45.8828 102.527 44.1865 101.085 44.1865 98.9146C44.1865 97.6489 44.7095 96.5942 45.7554 95.7505C46.8101 94.8979 48.1855 94.4717 49.8818 94.4717C51.6924 94.4717 53.1382 94.8979 54.2192 95.7505C55.3091 96.603 55.854 97.7104 55.854 99.0728H52.0439C52.0439 98.5278 51.8682 98.0796 51.5166 97.728C51.165 97.3677 50.6157 97.1875 49.8687 97.1875C49.2271 97.1875 48.7305 97.3325 48.3789 97.6226C48.0273 97.9126 47.8516 98.2817 47.8516 98.73C47.8516 99.1519 48.0493 99.4946 48.4448 99.7583C48.8491 100.013 49.5259 100.237 50.4751 100.431C51.4243 100.615 52.2241 100.826 52.8745 101.063C54.8872 101.802 55.8936 103.081 55.8936 104.9C55.8936 106.201 55.3354 107.255 54.2192 108.064C53.103 108.864 51.6616 109.264 49.895 109.264C48.6997 109.264 47.6362 109.053 46.7046 108.631C45.7817 108.2 45.0566 107.616 44.5293 106.877C44.002 106.13 43.7383 105.326 43.7383 104.465H47.3506C47.3857 105.142 47.6362 105.66 48.1021 106.021C48.5679 106.381 49.1919 106.561 49.9741 106.561C50.7036 106.561 51.2529 106.425 51.6221 106.152C52 105.871 52.189 105.506 52.189 105.058ZM57.7656 101.736C57.7656 100.321 58.0381 99.0596 58.583 97.9521C59.1279 96.8447 59.9102 95.9878 60.9297 95.3813C61.958 94.7749 63.1489 94.4717 64.5024 94.4717C66.4272 94.4717 67.9961 95.0605 69.209 96.2383C70.4307 97.416 71.1118 99.0156 71.2524 101.037L71.2788 102.013C71.2788 104.201 70.668 105.959 69.4463 107.286C68.2246 108.604 66.5854 109.264 64.5288 109.264C62.4722 109.264 60.8286 108.604 59.5981 107.286C58.3765 105.968 57.7656 104.175 57.7656 101.907V101.736ZM61.5757 102.013C61.5757 103.366 61.8306 104.403 62.3403 105.124C62.8501 105.836 63.5796 106.192 64.5288 106.192C65.4517 106.192 66.1724 105.84 66.6909 105.137C67.2095 104.425 67.4688 103.292 67.4688 101.736C67.4688 100.409 67.2095 99.3804 66.6909 98.6509C66.1724 97.9214 65.4429 97.5566 64.5024 97.5566C63.5708 97.5566 62.8501 97.9214 62.3403 98.6509C61.8306 99.3716 61.5757 100.492 61.5757 102.013ZM77.1982 94.7354L77.3169 96.3306C78.3276 95.0913 79.6943 94.4717 81.417 94.4717C83.2539 94.4717 84.5151 95.1968 85.2007 96.647C86.2026 95.1968 87.6309 94.4717 89.4854 94.4717C91.0322 94.4717 92.1836 94.9243 92.9395 95.8296C93.6953 96.7261 94.0732 98.0796 94.0732 99.8901V109H90.25V99.9033C90.25 99.0947 90.0918 98.5059 89.7754 98.1367C89.459 97.7588 88.9009 97.5698 88.1011 97.5698C86.9585 97.5698 86.1675 98.1147 85.728 99.2046L85.7412 109H81.9312V99.9165C81.9312 99.0903 81.7686 98.4927 81.4434 98.1235C81.1182 97.7544 80.5645 97.5698 79.7822 97.5698C78.7012 97.5698 77.9189 98.0181 77.4355 98.9146V109H73.6255V94.7354H77.1982ZM103.579 109.264C101.487 109.264 99.7817 108.622 98.4634 107.339C97.1538 106.056 96.499 104.346 96.499 102.21V101.841C96.499 100.409 96.7759 99.1299 97.3296 98.0049C97.8833 96.8711 98.6655 96.001 99.6763 95.3945C100.696 94.7793 101.856 94.4717 103.157 94.4717C105.108 94.4717 106.642 95.0869 107.758 96.3174C108.883 97.5479 109.445 99.2925 109.445 101.551V103.107H100.362C100.485 104.039 100.854 104.786 101.469 105.348C102.093 105.911 102.88 106.192 103.829 106.192C105.297 106.192 106.444 105.66 107.27 104.597L109.142 106.693C108.571 107.501 107.797 108.134 106.822 108.591C105.846 109.04 104.765 109.264 103.579 109.264ZM103.144 97.5566C102.388 97.5566 101.772 97.8115 101.298 98.3213C100.832 98.8311 100.533 99.5605 100.401 100.51H105.701V100.207C105.684 99.3628 105.455 98.7124 105.016 98.2554C104.576 97.7896 103.952 97.5566 103.144 97.5566ZM116.182 91.2285V94.7354H118.621V97.5303H116.182V104.649C116.182 105.177 116.283 105.555 116.485 105.783C116.688 106.012 117.074 106.126 117.646 106.126C118.067 106.126 118.441 106.095 118.766 106.034V108.921C118.019 109.149 117.25 109.264 116.459 109.264C113.787 109.264 112.425 107.915 112.372 105.216V97.5303H110.289V94.7354H112.372V91.2285H116.182ZM124.461 96.291C125.472 95.0781 126.742 94.4717 128.271 94.4717C131.365 94.4717 132.934 96.269 132.978 99.8638V109H129.168V99.9692C129.168 99.1519 128.992 98.5498 128.641 98.1631C128.289 97.7676 127.705 97.5698 126.887 97.5698C125.771 97.5698 124.962 98.0005 124.461 98.8618V109H120.651V88.75H124.461V96.291ZM139.873 109H136.05V94.7354H139.873V109ZM135.826 91.0439C135.826 90.4727 136.015 90.0024 136.393 89.6333C136.779 89.2642 137.302 89.0796 137.961 89.0796C138.612 89.0796 139.13 89.2642 139.517 89.6333C139.904 90.0024 140.097 90.4727 140.097 91.0439C140.097 91.624 139.899 92.0986 139.504 92.4678C139.117 92.8369 138.603 93.0215 137.961 93.0215C137.32 93.0215 136.801 92.8369 136.406 92.4678C136.019 92.0986 135.826 91.624 135.826 91.0439ZM146.531 94.7354L146.649 96.3833C147.669 95.1089 149.036 94.4717 150.75 94.4717C152.261 94.4717 153.386 94.9155 154.125 95.8032C154.863 96.6909 155.241 98.0181 155.258 99.7847V109H151.448V99.877C151.448 99.0684 151.272 98.4839 150.921 98.1235C150.569 97.7544 149.985 97.5698 149.167 97.5698C148.095 97.5698 147.291 98.0269 146.755 98.9409V109H142.945V94.7354H146.531ZM157.605 101.762C157.605 99.5737 158.124 97.8115 159.161 96.4756C160.207 95.1396 161.613 94.4717 163.379 94.4717C164.944 94.4717 166.161 95.0078 167.031 96.0801L167.189 94.7354H170.644V108.525C170.644 109.773 170.358 110.859 169.787 111.782C169.224 112.705 168.429 113.408 167.4 113.891C166.372 114.375 165.168 114.616 163.788 114.616C162.742 114.616 161.723 114.405 160.729 113.983C159.736 113.57 158.985 113.034 158.475 112.375L160.163 110.055C161.112 111.118 162.263 111.65 163.617 111.65C164.627 111.65 165.414 111.377 165.977 110.833C166.539 110.296 166.82 109.532 166.82 108.539V107.774C165.941 108.767 164.786 109.264 163.353 109.264C161.639 109.264 160.25 108.596 159.187 107.26C158.132 105.915 157.605 104.135 157.605 101.92V101.762ZM161.415 102.039C161.415 103.331 161.674 104.346 162.193 105.084C162.711 105.814 163.423 106.179 164.329 106.179C165.489 106.179 166.319 105.744 166.82 104.874V98.875C166.311 98.0049 165.489 97.5698 164.355 97.5698C163.441 97.5698 162.72 97.9434 162.193 98.6904C161.674 99.4375 161.415 100.554 161.415 102.039ZM52.7295 145C52.5537 144.657 52.4263 144.231 52.3472 143.721C51.4243 144.75 50.2246 145.264 48.748 145.264C47.3506 145.264 46.1904 144.859 45.2676 144.051C44.3535 143.242 43.8965 142.223 43.8965 140.992C43.8965 139.48 44.4546 138.32 45.5708 137.512C46.6958 136.703 48.3174 136.294 50.4355 136.286H52.189V135.468C52.189 134.809 52.0176 134.282 51.6748 133.886C51.3408 133.491 50.8091 133.293 50.0796 133.293C49.438 133.293 48.9326 133.447 48.5635 133.754C48.2031 134.062 48.0229 134.484 48.0229 135.02H44.2129C44.2129 134.194 44.4678 133.429 44.9775 132.726C45.4873 132.023 46.208 131.474 47.1396 131.078C48.0713 130.674 49.1172 130.472 50.2773 130.472C52.0352 130.472 53.4282 130.916 54.4565 131.803C55.4937 132.682 56.0122 133.921 56.0122 135.521V141.704C56.021 143.058 56.21 144.082 56.5791 144.776V145H52.7295ZM49.5786 142.35C50.1411 142.35 50.6597 142.227 51.1343 141.981C51.6089 141.726 51.9604 141.388 52.189 140.966V138.514H50.7651C48.8579 138.514 47.8428 139.173 47.7197 140.491L47.7065 140.715C47.7065 141.19 47.8735 141.581 48.2075 141.889C48.5415 142.196 48.9985 142.35 49.5786 142.35ZM71.3447 139.819L73.2168 130.735H76.895L73.2563 145H70.0659L67.3633 136.022L64.6606 145H61.4834L57.8447 130.735H61.5229L63.3818 139.806L65.9922 130.735H68.7476L71.3447 139.819ZM85.3589 145.264C83.2671 145.264 81.562 144.622 80.2437 143.339C78.9341 142.056 78.2793 140.346 78.2793 138.21V137.841C78.2793 136.409 78.5562 135.13 79.1099 134.005C79.6636 132.871 80.4458 132.001 81.4565 131.395C82.4761 130.779 83.6362 130.472 84.937 130.472C86.8882 130.472 88.4219 131.087 89.5381 132.317C90.6631 133.548 91.2256 135.292 91.2256 137.551V139.107H82.1421C82.2651 140.039 82.6343 140.786 83.2495 141.348C83.8735 141.911 84.6602 142.192 85.6094 142.192C87.0771 142.192 88.2241 141.66 89.0503 140.597L90.9224 142.693C90.3511 143.501 89.5776 144.134 88.6021 144.591C87.6265 145.04 86.5454 145.264 85.3589 145.264ZM84.9238 133.557C84.168 133.557 83.5527 133.812 83.0781 134.321C82.6123 134.831 82.3135 135.561 82.1816 136.51H87.4814V136.207C87.4639 135.363 87.2354 134.712 86.7959 134.255C86.3564 133.79 85.7324 133.557 84.9238 133.557ZM101.126 141.058C101.126 140.592 100.894 140.228 100.428 139.964C99.9707 139.691 99.2324 139.45 98.2129 139.239C94.8203 138.527 93.124 137.085 93.124 134.915C93.124 133.649 93.647 132.594 94.6929 131.75C95.7476 130.898 97.123 130.472 98.8193 130.472C100.63 130.472 102.076 130.898 103.157 131.75C104.247 132.603 104.792 133.71 104.792 135.073H100.981C100.981 134.528 100.806 134.08 100.454 133.728C100.103 133.368 99.5532 133.188 98.8062 133.188C98.1646 133.188 97.668 133.333 97.3164 133.623C96.9648 133.913 96.7891 134.282 96.7891 134.73C96.7891 135.152 96.9868 135.495 97.3823 135.758C97.7866 136.013 98.4634 136.237 99.4126 136.431C100.362 136.615 101.162 136.826 101.812 137.063C103.825 137.802 104.831 139.081 104.831 140.9C104.831 142.201 104.273 143.255 103.157 144.064C102.041 144.864 100.599 145.264 98.8325 145.264C97.6372 145.264 96.5737 145.053 95.6421 144.631C94.7192 144.2 93.9941 143.616 93.4668 142.877C92.9395 142.13 92.6758 141.326 92.6758 140.465H96.2881C96.3232 141.142 96.5737 141.66 97.0396 142.021C97.5054 142.381 98.1294 142.561 98.9116 142.561C99.6411 142.561 100.19 142.425 100.56 142.152C100.938 141.871 101.126 141.506 101.126 141.058ZM106.703 137.736C106.703 136.321 106.976 135.06 107.521 133.952C108.065 132.845 108.848 131.988 109.867 131.381C110.896 130.775 112.086 130.472 113.44 130.472C115.365 130.472 116.934 131.061 118.146 132.238C119.368 133.416 120.049 135.016 120.19 137.037L120.216 138.013C120.216 140.201 119.605 141.959 118.384 143.286C117.162 144.604 115.523 145.264 113.466 145.264C111.41 145.264 109.766 144.604 108.536 143.286C107.314 141.968 106.703 140.175 106.703 137.907V137.736ZM110.513 138.013C110.513 139.366 110.768 140.403 111.278 141.124C111.788 141.836 112.517 142.192 113.466 142.192C114.389 142.192 115.11 141.84 115.628 141.137C116.147 140.425 116.406 139.292 116.406 137.736C116.406 136.409 116.147 135.38 115.628 134.651C115.11 133.921 114.38 133.557 113.44 133.557C112.508 133.557 111.788 133.921 111.278 134.651C110.768 135.372 110.513 136.492 110.513 138.013ZM126.136 130.735L126.254 132.331C127.265 131.091 128.632 130.472 130.354 130.472C132.191 130.472 133.453 131.197 134.138 132.647C135.14 131.197 136.568 130.472 138.423 130.472C139.97 130.472 141.121 130.924 141.877 131.83C142.633 132.726 143.011 134.08 143.011 135.89V145H139.188V135.903C139.188 135.095 139.029 134.506 138.713 134.137C138.396 133.759 137.838 133.57 137.039 133.57C135.896 133.57 135.105 134.115 134.666 135.205L134.679 145H130.869V135.917C130.869 135.09 130.706 134.493 130.381 134.124C130.056 133.754 129.502 133.57 128.72 133.57C127.639 133.57 126.856 134.018 126.373 134.915V145H122.563V130.735H126.136ZM152.516 145.264C150.424 145.264 148.719 144.622 147.401 143.339C146.091 142.056 145.437 140.346 145.437 138.21V137.841C145.437 136.409 145.713 135.13 146.267 134.005C146.821 132.871 147.603 132.001 148.614 131.395C149.633 130.779 150.793 130.472 152.094 130.472C154.045 130.472 155.579 131.087 156.695 132.317C157.82 133.548 158.383 135.292 158.383 137.551V139.107H149.299C149.422 140.039 149.792 140.786 150.407 141.348C151.031 141.911 151.817 142.192 152.767 142.192C154.234 142.192 155.381 141.66 156.208 140.597L158.08 142.693C157.508 143.501 156.735 144.134 155.759 144.591C154.784 145.04 153.703 145.264 152.516 145.264ZM152.081 133.557C151.325 133.557 150.71 133.812 150.235 134.321C149.77 134.831 149.471 135.561 149.339 136.51H154.639V136.207C154.621 135.363 154.393 134.712 153.953 134.255C153.514 133.79 152.89 133.557 152.081 133.557ZM164.434 139.107H161.27L160.822 125.805H164.882L164.434 139.107ZM162.852 141.19C163.494 141.19 164.008 141.379 164.395 141.757C164.79 142.135 164.988 142.618 164.988 143.207C164.988 143.787 164.79 144.266 164.395 144.644C164.008 145.022 163.494 145.211 162.852 145.211C162.219 145.211 161.705 145.022 161.31 144.644C160.923 144.266 160.729 143.787 160.729 143.207C160.729 142.627 160.923 142.148 161.31 141.77C161.705 141.383 162.219 141.19 162.852 141.19Z" fill="white"/>
</g>
<path d="M45.2915 178.382V182H44.0728V172.758H47.4814C48.4928 172.758 49.2842 173.016 49.8555 173.532C50.431 174.049 50.7188 174.732 50.7188 175.583C50.7188 176.48 50.4373 177.172 49.8745 177.658C49.3159 178.141 48.514 178.382 47.4688 178.382H45.2915ZM45.2915 177.385H47.4814C48.1331 177.385 48.6325 177.233 48.9795 176.928C49.3265 176.619 49.5 176.175 49.5 175.595C49.5 175.045 49.3265 174.605 48.9795 174.275C48.6325 173.945 48.1564 173.773 47.5513 173.761H45.2915V177.385ZM55.4097 176.186C55.2319 176.156 55.0394 176.141 54.832 176.141C54.0618 176.141 53.5392 176.469 53.2642 177.125V182H52.0898V175.132H53.2324L53.2515 175.925C53.6366 175.312 54.1825 175.005 54.8892 175.005C55.1177 175.005 55.2912 175.035 55.4097 175.094V176.186ZM59.2183 182.127C58.2873 182.127 57.5298 181.822 56.9458 181.213C56.3618 180.599 56.0698 179.78 56.0698 178.756V178.541C56.0698 177.859 56.1989 177.252 56.457 176.719C56.7194 176.181 57.0833 175.762 57.5488 175.462C58.0186 175.157 58.5264 175.005 59.0723 175.005C59.9652 175.005 60.6592 175.299 61.1543 175.887C61.6494 176.475 61.897 177.318 61.897 178.414V178.902H57.2441C57.2611 179.579 57.4578 180.127 57.8345 180.546C58.2153 180.961 58.6978 181.168 59.2817 181.168C59.6965 181.168 60.0477 181.084 60.3354 180.915C60.6232 180.745 60.875 180.521 61.0908 180.242L61.8081 180.8C61.2326 181.685 60.3693 182.127 59.2183 182.127ZM59.0723 175.97C58.5983 175.97 58.2005 176.143 57.8789 176.49C57.5573 176.833 57.3584 177.315 57.2822 177.938H60.7227V177.849C60.6888 177.252 60.528 176.791 60.2402 176.465C59.9525 176.135 59.5632 175.97 59.0723 175.97ZM64.3662 175.132L64.3979 175.894C64.9015 175.301 65.5807 175.005 66.4355 175.005C67.3962 175.005 68.05 175.373 68.397 176.109C68.6255 175.779 68.9217 175.513 69.2856 175.31C69.6538 175.106 70.0876 175.005 70.5869 175.005C72.0934 175.005 72.8594 175.803 72.8848 177.398V182H71.7104V177.468C71.7104 176.977 71.5983 176.611 71.374 176.37C71.1497 176.124 70.7731 176.001 70.2441 176.001C69.8083 176.001 69.4465 176.133 69.1587 176.395C68.8709 176.653 68.7038 177.002 68.6572 177.442V182H67.4766V177.5C67.4766 176.501 66.9878 176.001 66.0103 176.001C65.2401 176.001 64.7132 176.329 64.4297 176.985V182H63.2554V175.132H64.3662ZM75.938 182H74.7637V175.132H75.938V182ZM74.6685 173.31C74.6685 173.12 74.7256 172.959 74.8398 172.828C74.9583 172.696 75.1318 172.631 75.3604 172.631C75.5889 172.631 75.7624 172.696 75.8809 172.828C75.9993 172.959 76.0586 173.12 76.0586 173.31C76.0586 173.5 75.9993 173.659 75.8809 173.786C75.7624 173.913 75.5889 173.977 75.3604 173.977C75.1318 173.977 74.9583 173.913 74.8398 173.786C74.7256 173.659 74.6685 173.5 74.6685 173.31ZM82.0635 181.321C81.6064 181.858 80.9357 182.127 80.0513 182.127C79.3192 182.127 78.7606 181.915 78.3755 181.492C77.9946 181.065 77.8021 180.434 77.7979 179.601V175.132H78.9722V179.569C78.9722 180.61 79.3953 181.13 80.2417 181.13C81.1388 181.13 81.7355 180.796 82.0317 180.127V175.132H83.2061V182H82.0889L82.0635 181.321ZM86.1006 175.132L86.1323 175.894C86.6359 175.301 87.3151 175.005 88.1699 175.005C89.1305 175.005 89.7843 175.373 90.1313 176.109C90.3599 175.779 90.6561 175.513 91.02 175.31C91.3882 175.106 91.8219 175.005 92.3213 175.005C93.8278 175.005 94.5938 175.803 94.6191 177.398V182H93.4448V177.468C93.4448 176.977 93.3327 176.611 93.1084 176.37C92.8841 176.124 92.5075 176.001 91.9785 176.001C91.5426 176.001 91.1808 176.133 90.8931 176.395C90.6053 176.653 90.4382 177.002 90.3916 177.442V182H89.2109V177.5C89.2109 176.501 88.7222 176.001 87.7446 176.001C86.9744 176.001 86.4476 176.329 86.1641 176.985V182H84.9897V175.132H86.1006ZM101.887 180.407L103.588 175.132H104.788L102.325 182H101.43L98.9419 175.132H100.142L101.887 180.407ZM108.679 182.127C107.748 182.127 106.991 181.822 106.407 181.213C105.823 180.599 105.531 179.78 105.531 178.756V178.541C105.531 177.859 105.66 177.252 105.918 176.719C106.18 176.181 106.544 175.762 107.01 175.462C107.479 175.157 107.987 175.005 108.533 175.005C109.426 175.005 110.12 175.299 110.615 175.887C111.11 176.475 111.358 177.318 111.358 178.414V178.902H106.705C106.722 179.579 106.919 180.127 107.295 180.546C107.676 180.961 108.159 181.168 108.743 181.168C109.157 181.168 109.509 181.084 109.796 180.915C110.084 180.745 110.336 180.521 110.552 180.242L111.269 180.8C110.694 181.685 109.83 182.127 108.679 182.127ZM108.533 175.97C108.059 175.97 107.661 176.143 107.34 176.49C107.018 176.833 106.819 177.315 106.743 177.938H110.184V177.849C110.15 177.252 109.989 176.791 109.701 176.465C109.413 176.135 109.024 175.97 108.533 175.97ZM116.042 176.186C115.865 176.156 115.672 176.141 115.465 176.141C114.695 176.141 114.172 176.469 113.897 177.125V182H112.723V175.132H113.865L113.884 175.925C114.269 175.312 114.815 175.005 115.522 175.005C115.75 175.005 115.924 175.035 116.042 175.094V176.186ZM121.127 180.178C121.127 179.861 121.006 179.615 120.765 179.442C120.528 179.264 120.111 179.112 119.515 178.985C118.922 178.858 118.45 178.706 118.099 178.528C117.752 178.35 117.494 178.139 117.325 177.893C117.16 177.648 117.077 177.356 117.077 177.017C117.077 176.454 117.314 175.978 117.788 175.589C118.266 175.2 118.876 175.005 119.616 175.005C120.395 175.005 121.025 175.206 121.508 175.608C121.994 176.01 122.238 176.524 122.238 177.15H121.057C121.057 176.829 120.92 176.552 120.645 176.319C120.374 176.086 120.031 175.97 119.616 175.97C119.189 175.97 118.854 176.063 118.613 176.249C118.372 176.435 118.251 176.679 118.251 176.979C118.251 177.263 118.364 177.476 118.588 177.62C118.812 177.764 119.216 177.902 119.8 178.033C120.389 178.164 120.865 178.32 121.229 178.502C121.592 178.684 121.861 178.904 122.035 179.163C122.212 179.417 122.301 179.728 122.301 180.096C122.301 180.709 122.056 181.202 121.565 181.575C121.074 181.943 120.437 182.127 119.654 182.127C119.104 182.127 118.618 182.03 118.194 181.835C117.771 181.64 117.439 181.369 117.198 181.022C116.961 180.671 116.842 180.292 116.842 179.886H118.017C118.038 180.28 118.194 180.593 118.486 180.826C118.783 181.054 119.172 181.168 119.654 181.168C120.099 181.168 120.454 181.08 120.721 180.902C120.992 180.72 121.127 180.479 121.127 180.178ZM125.107 182H123.933V175.132H125.107V182ZM123.837 173.31C123.837 173.12 123.895 172.959 124.009 172.828C124.127 172.696 124.301 172.631 124.529 172.631C124.758 172.631 124.931 172.696 125.05 172.828C125.168 172.959 125.228 173.12 125.228 173.31C125.228 173.5 125.168 173.659 125.05 173.786C124.931 173.913 124.758 173.977 124.529 173.977C124.301 173.977 124.127 173.913 124.009 173.786C123.895 173.659 123.837 173.5 123.837 173.31ZM126.681 178.502C126.681 177.83 126.812 177.224 127.075 176.687C127.341 176.15 127.709 175.735 128.179 175.443C128.653 175.151 129.193 175.005 129.798 175.005C130.733 175.005 131.488 175.329 132.064 175.976C132.644 176.624 132.934 177.485 132.934 178.56V178.642C132.934 179.311 132.805 179.912 132.546 180.445C132.292 180.974 131.926 181.386 131.448 181.683C130.974 181.979 130.428 182.127 129.811 182.127C128.88 182.127 128.124 181.803 127.544 181.156C126.969 180.508 126.681 179.651 126.681 178.585V178.502ZM127.862 178.642C127.862 179.404 128.037 180.015 128.389 180.477C128.744 180.938 129.218 181.168 129.811 181.168C130.407 181.168 130.881 180.936 131.232 180.47C131.584 180 131.759 179.345 131.759 178.502C131.759 177.749 131.579 177.14 131.22 176.674C130.864 176.205 130.39 175.97 129.798 175.97C129.218 175.97 128.75 176.2 128.395 176.662C128.04 177.123 127.862 177.783 127.862 178.642ZM135.517 175.132L135.555 175.995C136.08 175.335 136.765 175.005 137.612 175.005C139.063 175.005 139.795 175.824 139.808 177.461V182H138.634V177.455C138.63 176.96 138.515 176.594 138.291 176.357C138.071 176.12 137.726 176.001 137.256 176.001C136.875 176.001 136.541 176.103 136.253 176.306C135.966 176.509 135.741 176.776 135.581 177.106V182H134.406V175.132H135.517ZM147.559 181.168C147.978 181.168 148.344 181.042 148.657 180.788C148.97 180.534 149.143 180.216 149.177 179.835H150.288C150.267 180.229 150.132 180.604 149.882 180.959C149.632 181.314 149.298 181.598 148.879 181.81C148.464 182.021 148.024 182.127 147.559 182.127C146.623 182.127 145.879 181.816 145.324 181.194C144.774 180.568 144.499 179.713 144.499 178.629V178.433C144.499 177.764 144.622 177.169 144.867 176.649C145.113 176.128 145.464 175.724 145.921 175.437C146.382 175.149 146.926 175.005 147.552 175.005C148.322 175.005 148.961 175.236 149.469 175.697C149.981 176.158 150.254 176.757 150.288 177.493H149.177C149.143 177.049 148.974 176.685 148.669 176.401C148.369 176.114 147.997 175.97 147.552 175.97C146.956 175.97 146.492 176.186 146.162 176.617C145.836 177.045 145.673 177.665 145.673 178.477V178.699C145.673 179.491 145.836 180.1 146.162 180.527C146.488 180.955 146.953 181.168 147.559 181.168ZM151.297 178.502C151.297 177.83 151.429 177.224 151.691 176.687C151.958 176.15 152.326 175.735 152.795 175.443C153.269 175.151 153.809 175.005 154.414 175.005C155.349 175.005 156.105 175.329 156.68 175.976C157.26 176.624 157.55 177.485 157.55 178.56V178.642C157.55 179.311 157.421 179.912 157.163 180.445C156.909 180.974 156.543 181.386 156.064 181.683C155.59 181.979 155.045 182.127 154.427 182.127C153.496 182.127 152.74 181.803 152.161 181.156C151.585 180.508 151.297 179.651 151.297 178.585V178.502ZM152.478 178.642C152.478 179.404 152.654 180.015 153.005 180.477C153.36 180.938 153.834 181.168 154.427 181.168C155.023 181.168 155.497 180.936 155.849 180.47C156.2 180 156.375 179.345 156.375 178.502C156.375 177.749 156.196 177.14 155.836 176.674C155.48 176.205 155.007 175.97 154.414 175.97C153.834 175.97 153.367 176.2 153.011 176.662C152.656 177.123 152.478 177.783 152.478 178.642ZM160.127 175.132L160.159 175.894C160.662 175.301 161.341 175.005 162.196 175.005C163.157 175.005 163.811 175.373 164.158 176.109C164.386 175.779 164.682 175.513 165.046 175.31C165.415 175.106 165.848 175.005 166.348 175.005C167.854 175.005 168.62 175.803 168.646 177.398V182H167.471V177.468C167.471 176.977 167.359 176.611 167.135 176.37C166.91 176.124 166.534 176.001 166.005 176.001C165.569 176.001 165.207 176.133 164.919 176.395C164.632 176.653 164.465 177.002 164.418 177.442V182H163.237V177.5C163.237 176.501 162.749 176.001 161.771 176.001C161.001 176.001 160.474 176.329 160.19 176.985V182H159.016V175.132H160.127ZM171.699 182H170.524V175.132H171.699V182ZM170.429 173.31C170.429 173.12 170.486 172.959 170.601 172.828C170.719 172.696 170.893 172.631 171.121 172.631C171.35 172.631 171.523 172.696 171.642 172.828C171.76 172.959 171.819 173.12 171.819 173.31C171.819 173.5 171.76 173.659 171.642 173.786C171.523 173.913 171.35 173.977 171.121 173.977C170.893 173.977 170.719 173.913 170.601 173.786C170.486 173.659 170.429 173.5 170.429 173.31ZM174.695 175.132L174.733 175.995C175.258 175.335 175.943 175.005 176.79 175.005C178.241 175.005 178.973 175.824 178.986 177.461V182H177.812V177.455C177.807 176.96 177.693 176.594 177.469 176.357C177.249 176.12 176.904 176.001 176.434 176.001C176.053 176.001 175.719 176.103 175.431 176.306C175.143 176.509 174.919 176.776 174.758 177.106V182H173.584V175.132H174.695ZM180.478 178.509C180.478 177.438 180.725 176.588 181.22 175.957C181.715 175.322 182.371 175.005 183.188 175.005C184.026 175.005 184.68 175.301 185.149 175.894L185.207 175.132H186.279V181.835C186.279 182.724 186.015 183.424 185.486 183.936C184.961 184.448 184.254 184.704 183.366 184.704C182.871 184.704 182.386 184.598 181.912 184.387C181.438 184.175 181.076 183.885 180.827 183.517L181.436 182.812C181.94 183.435 182.555 183.746 183.283 183.746C183.854 183.746 184.299 183.585 184.616 183.263C184.938 182.942 185.099 182.489 185.099 181.905V181.314C184.629 181.856 183.988 182.127 183.175 182.127C182.371 182.127 181.72 181.803 181.22 181.156C180.725 180.508 180.478 179.626 180.478 178.509ZM181.658 178.642C181.658 179.417 181.817 180.026 182.134 180.47C182.452 180.91 182.896 181.13 183.467 181.13C184.208 181.13 184.752 180.794 185.099 180.121V176.985C184.739 176.329 184.199 176.001 183.48 176.001C182.909 176.001 182.462 176.224 182.141 176.668C181.819 177.112 181.658 177.77 181.658 178.642ZM195.28 180.178C195.28 179.861 195.16 179.615 194.918 179.442C194.681 179.264 194.265 179.112 193.668 178.985C193.076 178.858 192.604 178.706 192.252 178.528C191.905 178.35 191.647 178.139 191.478 177.893C191.313 177.648 191.23 177.356 191.23 177.017C191.23 176.454 191.467 175.978 191.941 175.589C192.42 175.2 193.029 175.005 193.77 175.005C194.548 175.005 195.179 175.206 195.661 175.608C196.148 176.01 196.391 176.524 196.391 177.15H195.21C195.21 176.829 195.073 176.552 194.798 176.319C194.527 176.086 194.184 175.97 193.77 175.97C193.342 175.97 193.008 176.063 192.767 176.249C192.525 176.435 192.405 176.679 192.405 176.979C192.405 177.263 192.517 177.476 192.741 177.62C192.965 177.764 193.37 177.902 193.954 178.033C194.542 178.164 195.018 178.32 195.382 178.502C195.746 178.684 196.014 178.904 196.188 179.163C196.366 179.417 196.455 179.728 196.455 180.096C196.455 180.709 196.209 181.202 195.718 181.575C195.227 181.943 194.59 182.127 193.808 182.127C193.257 182.127 192.771 182.03 192.348 181.835C191.924 181.64 191.592 181.369 191.351 181.022C191.114 180.671 190.996 180.292 190.996 179.886H192.17C192.191 180.28 192.348 180.593 192.64 180.826C192.936 181.054 193.325 181.168 193.808 181.168C194.252 181.168 194.607 181.08 194.874 180.902C195.145 180.72 195.28 180.479 195.28 180.178ZM197.673 178.502C197.673 177.83 197.805 177.224 198.067 176.687C198.333 176.15 198.702 175.735 199.171 175.443C199.645 175.151 200.185 175.005 200.79 175.005C201.725 175.005 202.481 175.329 203.056 175.976C203.636 176.624 203.926 177.485 203.926 178.56V178.642C203.926 179.311 203.797 179.912 203.539 180.445C203.285 180.974 202.919 181.386 202.44 181.683C201.966 181.979 201.421 182.127 200.803 182.127C199.872 182.127 199.116 181.803 198.537 181.156C197.961 180.508 197.673 179.651 197.673 178.585V178.502ZM198.854 178.642C198.854 179.404 199.03 180.015 199.381 180.477C199.736 180.938 200.21 181.168 200.803 181.168C201.399 181.168 201.873 180.936 202.225 180.47C202.576 180 202.751 179.345 202.751 178.502C202.751 177.749 202.572 177.14 202.212 176.674C201.856 176.205 201.382 175.97 200.79 175.97C200.21 175.97 199.743 176.2 199.387 176.662C199.032 177.123 198.854 177.783 198.854 178.642ZM205.087 178.502C205.087 177.83 205.219 177.224 205.481 176.687C205.748 176.15 206.116 175.735 206.585 175.443C207.059 175.151 207.599 175.005 208.204 175.005C209.139 175.005 209.895 175.329 210.47 175.976C211.05 176.624 211.34 177.485 211.34 178.56V178.642C211.34 179.311 211.211 179.912 210.953 180.445C210.699 180.974 210.333 181.386 209.854 181.683C209.381 181.979 208.835 182.127 208.217 182.127C207.286 182.127 206.53 181.803 205.951 181.156C205.375 180.508 205.087 179.651 205.087 178.585V178.502ZM206.268 178.642C206.268 179.404 206.444 180.015 206.795 180.477C207.15 180.938 207.624 181.168 208.217 181.168C208.813 181.168 209.287 180.936 209.639 180.47C209.99 180 210.166 179.345 210.166 178.502C210.166 177.749 209.986 177.14 209.626 176.674C209.271 176.205 208.797 175.97 208.204 175.97C207.624 175.97 207.157 176.2 206.801 176.662C206.446 177.123 206.268 177.783 206.268 178.642ZM213.923 175.132L213.961 175.995C214.486 175.335 215.172 175.005 216.018 175.005C217.47 175.005 218.202 175.824 218.214 177.461V182H217.04V177.455C217.036 176.96 216.922 176.594 216.697 176.357C216.477 176.12 216.132 176.001 215.663 176.001C215.282 176.001 214.947 176.103 214.66 176.306C214.372 176.509 214.148 176.776 213.987 177.106V182H212.812V175.132H213.923ZM50.8965 200.788C50.5833 201.236 50.1453 201.573 49.5825 201.797C49.0239 202.017 48.3722 202.127 47.6274 202.127C46.8742 202.127 46.2056 201.951 45.6216 201.6C45.0376 201.245 44.5848 200.741 44.2632 200.089C43.9458 199.438 43.7829 198.682 43.7744 197.823V197.017C43.7744 195.625 44.0981 194.546 44.7456 193.78C45.3973 193.014 46.3114 192.631 47.4878 192.631C48.4526 192.631 49.2292 192.878 49.8174 193.374C50.4056 193.864 50.7653 194.563 50.8965 195.468H49.6777C49.4492 194.245 48.7214 193.634 47.4941 193.634C46.6774 193.634 46.0575 193.922 45.6343 194.497C45.2153 195.068 45.0037 195.898 44.9995 196.985V197.741C44.9995 198.778 45.2365 199.603 45.7104 200.216C46.1844 200.826 46.8255 201.13 47.6338 201.13C48.0908 201.13 48.4907 201.08 48.8335 200.978C49.1763 200.876 49.4598 200.705 49.6841 200.464V198.388H47.5449V197.398H50.8965V200.788ZM55.6001 202.127C54.6691 202.127 53.9116 201.822 53.3276 201.213C52.7437 200.599 52.4517 199.78 52.4517 198.756V198.541C52.4517 197.859 52.5807 197.252 52.8389 196.719C53.1012 196.181 53.4652 195.762 53.9307 195.462C54.4004 195.157 54.9082 195.005 55.4541 195.005C56.347 195.005 57.041 195.299 57.5361 195.887C58.0312 196.475 58.2788 197.318 58.2788 198.414V198.902H53.626C53.6429 199.579 53.8397 200.127 54.2163 200.546C54.5972 200.961 55.0796 201.168 55.6636 201.168C56.0783 201.168 56.4295 201.084 56.7173 200.915C57.005 200.745 57.2568 200.521 57.4727 200.242L58.1899 200.8C57.6144 201.685 56.7511 202.127 55.6001 202.127ZM55.4541 195.97C54.9801 195.97 54.5824 196.143 54.2607 196.49C53.9391 196.833 53.7402 197.315 53.6641 197.938H57.1045V197.849C57.0706 197.252 56.9098 196.791 56.6221 196.465C56.3343 196.135 55.945 195.97 55.4541 195.97ZM61.2368 193.469V195.132H62.519V196.04H61.2368V200.299C61.2368 200.574 61.2939 200.781 61.4082 200.921C61.5225 201.056 61.7171 201.124 61.9922 201.124C62.1276 201.124 62.3138 201.099 62.5508 201.048V202C62.2419 202.085 61.9414 202.127 61.6494 202.127C61.1247 202.127 60.729 201.968 60.4624 201.651C60.1958 201.333 60.0625 200.883 60.0625 200.299V196.04H58.812V195.132H60.0625V193.469H61.2368ZM68.2319 195.132L68.27 195.995C68.7948 195.335 69.4803 195.005 70.3267 195.005C71.7782 195.005 72.5103 195.824 72.5229 197.461V202H71.3486V197.455C71.3444 196.96 71.2301 196.594 71.0059 196.357C70.7858 196.12 70.4409 196.001 69.9712 196.001C69.5903 196.001 69.256 196.103 68.9683 196.306C68.6805 196.509 68.4562 196.776 68.2954 197.106V202H67.1211V195.132H68.2319ZM73.9829 198.502C73.9829 197.83 74.1141 197.224 74.3765 196.687C74.6431 196.15 75.0112 195.735 75.481 195.443C75.9549 195.151 76.4945 195.005 77.0996 195.005C78.0348 195.005 78.7902 195.329 79.3657 195.976C79.9455 196.624 80.2354 197.485 80.2354 198.56V198.642C80.2354 199.311 80.1063 199.912 79.8481 200.445C79.5942 200.974 79.2282 201.386 78.75 201.683C78.276 201.979 77.7301 202.127 77.1123 202.127C76.1813 202.127 75.4259 201.803 74.8462 201.156C74.2707 200.508 73.9829 199.651 73.9829 198.585V198.502ZM75.1636 198.642C75.1636 199.404 75.3392 200.015 75.6904 200.477C76.0459 200.938 76.5199 201.168 77.1123 201.168C77.709 201.168 78.1829 200.936 78.5342 200.47C78.8854 200 79.061 199.345 79.061 198.502C79.061 197.749 78.8812 197.14 78.5215 196.674C78.166 196.205 77.6921 195.97 77.0996 195.97C76.5199 195.97 76.0522 196.2 75.6968 196.662C75.3413 197.123 75.1636 197.783 75.1636 198.642ZM83.3013 193.469V195.132H84.5835V196.04H83.3013V200.299C83.3013 200.574 83.3584 200.781 83.4727 200.921C83.5869 201.056 83.7816 201.124 84.0566 201.124C84.1921 201.124 84.3783 201.099 84.6152 201.048V202C84.3063 202.085 84.0059 202.127 83.7139 202.127C83.1891 202.127 82.7935 201.968 82.5269 201.651C82.2603 201.333 82.127 200.883 82.127 200.299V196.04H80.8765V195.132H82.127V193.469H83.3013ZM87.2368 202H86.0625V195.132H87.2368V202ZM85.9673 193.31C85.9673 193.12 86.0244 192.959 86.1387 192.828C86.2572 192.696 86.4307 192.631 86.6592 192.631C86.8877 192.631 87.0612 192.696 87.1797 192.828C87.2982 192.959 87.3574 193.12 87.3574 193.31C87.3574 193.5 87.2982 193.659 87.1797 193.786C87.0612 193.913 86.8877 193.977 86.6592 193.977C86.4307 193.977 86.2572 193.913 86.1387 193.786C86.0244 193.659 85.9673 193.5 85.9673 193.31ZM89.5156 202V196.04H88.4302V195.132H89.5156V194.548C89.5156 193.782 89.7336 193.185 90.1694 192.758C90.6095 192.33 91.2295 192.117 92.0293 192.117C92.5033 192.117 93.1021 192.246 93.8257 192.504L93.6289 193.494C93.0999 193.283 92.5964 193.177 92.1182 193.177C91.6146 193.177 91.2507 193.291 91.0264 193.52C90.8063 193.744 90.6963 194.082 90.6963 194.535V195.132H92.0991V196.04H90.6963V202H89.5156ZM94.4097 202H93.229V195.132H94.4097V202ZM99.1704 202.127C98.2394 202.127 97.4819 201.822 96.8979 201.213C96.314 200.599 96.022 199.78 96.022 198.756V198.541C96.022 197.859 96.151 197.252 96.4092 196.719C96.6715 196.181 97.0355 195.762 97.501 195.462C97.9707 195.157 98.4785 195.005 99.0244 195.005C99.9173 195.005 100.611 195.299 101.106 195.887C101.602 196.475 101.849 197.318 101.849 198.414V198.902H97.1963C97.2132 199.579 97.41 200.127 97.7866 200.546C98.1675 200.961 98.6499 201.168 99.2339 201.168C99.6486 201.168 99.9998 201.084 100.288 200.915C100.575 200.745 100.827 200.521 101.043 200.242L101.76 200.8C101.185 201.685 100.321 202.127 99.1704 202.127ZM99.0244 195.97C98.5505 195.97 98.1527 196.143 97.8311 196.49C97.5094 196.833 97.3105 197.315 97.2344 197.938H100.675V197.849C100.641 197.252 100.48 196.791 100.192 196.465C99.9046 196.135 99.5153 195.97 99.0244 195.97ZM102.928 198.509C102.928 197.455 103.178 196.609 103.677 195.97C104.177 195.326 104.83 195.005 105.639 195.005C106.443 195.005 107.08 195.28 107.549 195.83V192.25H108.724V202H107.645L107.587 201.264C107.118 201.839 106.464 202.127 105.626 202.127C104.83 202.127 104.181 201.801 103.677 201.149C103.178 200.498 102.928 199.647 102.928 198.598V198.509ZM104.103 198.642C104.103 199.421 104.263 200.03 104.585 200.47C104.907 200.91 105.351 201.13 105.918 201.13C106.663 201.13 107.207 200.796 107.549 200.127V196.973C107.198 196.325 106.659 196.001 105.931 196.001C105.355 196.001 104.907 196.224 104.585 196.668C104.263 197.112 104.103 197.77 104.103 198.642ZM119.857 200.381L121.178 195.132H122.352L120.353 202H119.4L117.731 196.795L116.106 202H115.154L113.161 195.132H114.329L115.681 200.273L117.28 195.132H118.226L119.857 200.381ZM124.726 195.963C125.247 195.324 125.924 195.005 126.757 195.005C128.209 195.005 128.941 195.824 128.954 197.461V202H127.779V197.455C127.775 196.96 127.661 196.594 127.437 196.357C127.216 196.12 126.872 196.001 126.402 196.001C126.021 196.001 125.687 196.103 125.399 196.306C125.111 196.509 124.887 196.776 124.726 197.106V202H123.552V192.25H124.726V195.963ZM133.562 202.127C132.631 202.127 131.874 201.822 131.29 201.213C130.706 200.599 130.414 199.78 130.414 198.756V198.541C130.414 197.859 130.543 197.252 130.801 196.719C131.063 196.181 131.427 195.762 131.893 195.462C132.362 195.157 132.87 195.005 133.416 195.005C134.309 195.005 135.003 195.299 135.498 195.887C135.993 196.475 136.241 197.318 136.241 198.414V198.902H131.588C131.605 199.579 131.802 200.127 132.178 200.546C132.559 200.961 133.042 201.168 133.625 201.168C134.04 201.168 134.391 201.084 134.679 200.915C134.967 200.745 135.219 200.521 135.435 200.242L136.152 200.8C135.576 201.685 134.713 202.127 133.562 202.127ZM133.416 195.97C132.942 195.97 132.544 196.143 132.223 196.49C131.901 196.833 131.702 197.315 131.626 197.938H135.066V197.849C135.033 197.252 134.872 196.791 134.584 196.465C134.296 196.135 133.907 195.97 133.416 195.97ZM138.716 195.132L138.754 195.995C139.279 195.335 139.965 195.005 140.811 195.005C142.263 195.005 142.995 195.824 143.007 197.461V202H141.833V197.455C141.829 196.96 141.715 196.594 141.49 196.357C141.27 196.12 140.925 196.001 140.456 196.001C140.075 196.001 139.74 196.103 139.453 196.306C139.165 196.509 138.941 196.776 138.78 197.106V202H137.605V195.132H138.716ZM154.084 200.381L155.404 195.132H156.579L154.579 202H153.627L151.958 196.795L150.333 202H149.38L147.387 195.132H148.555L149.907 200.273L151.507 195.132H152.453L154.084 200.381ZM160.628 202.127C159.697 202.127 158.94 201.822 158.356 201.213C157.772 200.599 157.48 199.78 157.48 198.756V198.541C157.48 197.859 157.609 197.252 157.867 196.719C158.13 196.181 158.493 195.762 158.959 195.462C159.429 195.157 159.937 195.005 160.482 195.005C161.375 195.005 162.069 195.299 162.564 195.887C163.06 196.475 163.307 197.318 163.307 198.414V198.902H158.654C158.671 199.579 158.868 200.127 159.245 200.546C159.625 200.961 160.108 201.168 160.692 201.168C161.107 201.168 161.458 201.084 161.746 200.915C162.033 200.745 162.285 200.521 162.501 200.242L163.218 200.8C162.643 201.685 161.779 202.127 160.628 202.127ZM160.482 195.97C160.008 195.97 159.611 196.143 159.289 196.49C158.967 196.833 158.769 197.315 158.692 197.938H162.133V197.849C162.099 197.252 161.938 196.791 161.65 196.465C161.363 196.135 160.973 195.97 160.482 195.97ZM169.172 202H167.998V192.25H169.172V202ZM175.298 202C175.23 201.865 175.175 201.623 175.133 201.276C174.587 201.843 173.935 202.127 173.178 202.127C172.501 202.127 171.944 201.937 171.508 201.556C171.077 201.171 170.861 200.684 170.861 200.096C170.861 199.381 171.132 198.826 171.673 198.433C172.219 198.035 172.985 197.836 173.971 197.836H175.114V197.296C175.114 196.886 174.991 196.56 174.746 196.319C174.5 196.073 174.138 195.951 173.66 195.951C173.241 195.951 172.89 196.056 172.606 196.268C172.323 196.48 172.181 196.736 172.181 197.036H171C171 196.693 171.121 196.363 171.362 196.046C171.608 195.724 171.938 195.47 172.353 195.284C172.771 195.098 173.231 195.005 173.73 195.005C174.521 195.005 175.141 195.204 175.59 195.602C176.038 195.995 176.271 196.539 176.288 197.233V200.394C176.288 201.025 176.368 201.526 176.529 201.898V202H175.298ZM173.349 201.105C173.717 201.105 174.066 201.01 174.396 200.819C174.727 200.629 174.966 200.381 175.114 200.077V198.667H174.193C172.755 198.667 172.035 199.089 172.035 199.931C172.035 200.299 172.158 200.587 172.403 200.794C172.649 201.001 172.964 201.105 173.349 201.105ZM182.369 201.321C181.912 201.858 181.241 202.127 180.357 202.127C179.625 202.127 179.066 201.915 178.681 201.492C178.3 201.065 178.108 200.434 178.104 199.601V195.132H179.278V199.569C179.278 200.61 179.701 201.13 180.547 201.13C181.444 201.13 182.041 200.796 182.337 200.127V195.132H183.512V202H182.395L182.369 201.321ZM186.413 195.132L186.451 195.995C186.975 195.335 187.661 195.005 188.507 195.005C189.959 195.005 190.691 195.824 190.704 197.461V202H189.529V197.455C189.525 196.96 189.411 196.594 189.187 196.357C188.966 196.12 188.622 196.001 188.152 196.001C187.771 196.001 187.437 196.103 187.149 196.306C186.861 196.509 186.637 196.776 186.476 197.106V202H185.302V195.132H186.413ZM195.229 201.168C195.648 201.168 196.014 201.042 196.328 200.788C196.641 200.534 196.814 200.216 196.848 199.835H197.959C197.938 200.229 197.802 200.604 197.553 200.959C197.303 201.314 196.969 201.598 196.55 201.81C196.135 202.021 195.695 202.127 195.229 202.127C194.294 202.127 193.549 201.816 192.995 201.194C192.445 200.568 192.17 199.713 192.17 198.629V198.433C192.17 197.764 192.293 197.169 192.538 196.649C192.784 196.128 193.135 195.724 193.592 195.437C194.053 195.149 194.597 195.005 195.223 195.005C195.993 195.005 196.632 195.236 197.14 195.697C197.652 196.158 197.925 196.757 197.959 197.493H196.848C196.814 197.049 196.645 196.685 196.34 196.401C196.04 196.114 195.667 195.97 195.223 195.97C194.626 195.97 194.163 196.186 193.833 196.617C193.507 197.045 193.344 197.665 193.344 198.477V198.699C193.344 199.491 193.507 200.1 193.833 200.527C194.159 200.955 194.624 201.168 195.229 201.168ZM200.454 195.963C200.974 195.324 201.651 195.005 202.485 195.005C203.936 195.005 204.668 195.824 204.681 197.461V202H203.507V197.455C203.503 196.96 203.388 196.594 203.164 196.357C202.944 196.12 202.599 196.001 202.129 196.001C201.749 196.001 201.414 196.103 201.126 196.306C200.839 196.509 200.614 196.776 200.454 197.106V202H199.279V192.25H200.454V195.963Z" fill="white"/>
<path d="M45.5454 234.718H49.7412V236H43.9395V226.758H45.5454V234.718ZM53.8481 236.127C52.8706 236.127 52.0771 235.82 51.4678 235.207C50.8626 234.589 50.5601 233.768 50.5601 232.744V232.553C50.5601 231.868 50.6912 231.256 50.9536 230.719C51.2202 230.177 51.5926 229.756 52.0708 229.456C52.549 229.155 53.0822 229.005 53.6704 229.005C54.6056 229.005 55.3271 229.303 55.835 229.9C56.347 230.497 56.603 231.341 56.603 232.433V233.055H52.1152C52.1618 233.622 52.3501 234.07 52.6802 234.4C53.0145 234.73 53.4334 234.896 53.937 234.896C54.6437 234.896 55.2192 234.61 55.6636 234.039L56.4951 234.832C56.2201 235.243 55.8519 235.562 55.3906 235.791C54.9336 236.015 54.4194 236.127 53.8481 236.127ZM53.6641 230.243C53.2409 230.243 52.8981 230.391 52.6357 230.687C52.3776 230.983 52.2126 231.396 52.1406 231.925H55.0796V231.811C55.0457 231.294 54.9082 230.905 54.667 230.643C54.4258 230.376 54.0915 230.243 53.6641 230.243ZM61.9097 236C61.842 235.869 61.7827 235.655 61.7319 235.359C61.241 235.871 60.6401 236.127 59.9292 236.127C59.2394 236.127 58.6766 235.93 58.2407 235.537C57.8049 235.143 57.5869 234.656 57.5869 234.077C57.5869 233.345 57.8577 232.784 58.3994 232.395C58.9453 232.001 59.724 231.804 60.7354 231.804H61.6812V231.354C61.6812 230.998 61.5817 230.715 61.3828 230.503C61.1839 230.287 60.8813 230.179 60.4751 230.179C60.1239 230.179 59.8361 230.268 59.6118 230.446C59.3875 230.619 59.2754 230.841 59.2754 231.112H57.7329C57.7329 230.736 57.8577 230.384 58.1074 230.059C58.3571 229.729 58.6956 229.47 59.123 229.284C59.5547 229.098 60.035 229.005 60.564 229.005C61.368 229.005 62.0091 229.208 62.4873 229.614C62.9655 230.016 63.2109 230.583 63.2236 231.315V234.413C63.2236 235.031 63.3104 235.524 63.4839 235.892V236H61.9097ZM60.2148 234.889C60.5195 234.889 60.8052 234.815 61.0718 234.667C61.3426 234.519 61.5457 234.32 61.6812 234.07V232.775H60.8496C60.2783 232.775 59.8488 232.875 59.561 233.074C59.2733 233.273 59.1294 233.554 59.1294 233.918C59.1294 234.214 59.2267 234.451 59.4214 234.629C59.6203 234.802 59.8848 234.889 60.2148 234.889ZM68.4351 230.541C68.2319 230.507 68.0225 230.49 67.8066 230.49C67.0999 230.49 66.6239 230.761 66.3784 231.303V236H64.8359V229.132H66.3086L66.3467 229.9C66.7191 229.303 67.2354 229.005 67.8955 229.005C68.1156 229.005 68.2975 229.035 68.4414 229.094L68.4351 230.541ZM70.8408 229.132L70.8853 229.925C71.3931 229.312 72.0596 229.005 72.8848 229.005C74.3151 229.005 75.043 229.824 75.0684 231.461V236H73.5259V231.55C73.5259 231.114 73.4307 230.793 73.2402 230.585C73.054 230.374 72.7472 230.268 72.3198 230.268C71.6978 230.268 71.2344 230.549 70.9297 231.112V236H69.3872V229.132H70.8408ZM81.3335 229.132L81.3779 229.849C81.8604 229.286 82.5205 229.005 83.3584 229.005C84.2767 229.005 84.9051 229.356 85.2437 230.059C85.743 229.356 86.4455 229.005 87.3511 229.005C88.1086 229.005 88.6714 229.214 89.0396 229.633C89.4119 230.052 89.6024 230.67 89.6108 231.487V236H88.0684V231.531C88.0684 231.095 87.9731 230.776 87.7827 230.573C87.5923 230.37 87.277 230.268 86.8369 230.268C86.4857 230.268 86.1979 230.363 85.9736 230.554C85.7536 230.74 85.5991 230.985 85.5103 231.29L85.5166 236H83.9741V231.48C83.953 230.672 83.5404 230.268 82.7363 230.268C82.1185 230.268 81.6805 230.52 81.4224 231.023V236H79.8799V229.132H81.3335ZM90.9058 232.502C90.9058 231.83 91.0391 231.224 91.3057 230.687C91.5723 230.145 91.9468 229.731 92.4292 229.443C92.9116 229.151 93.466 229.005 94.0923 229.005C95.019 229.005 95.7702 229.303 96.3457 229.9C96.9255 230.497 97.2386 231.288 97.2852 232.274L97.2915 232.636C97.2915 233.313 97.1603 233.918 96.8979 234.451C96.6398 234.984 96.2674 235.397 95.7808 235.689C95.2983 235.981 94.7397 236.127 94.105 236.127C93.1359 236.127 92.3594 235.805 91.7754 235.162C91.1956 234.515 90.9058 233.653 90.9058 232.579V232.502ZM92.4482 232.636C92.4482 233.342 92.5942 233.897 92.8862 234.299C93.1782 234.697 93.5845 234.896 94.105 234.896C94.6255 234.896 95.0296 234.692 95.3174 234.286C95.6094 233.88 95.7554 233.285 95.7554 232.502C95.7554 231.808 95.6051 231.258 95.3047 230.852C95.0085 230.446 94.6043 230.243 94.0923 230.243C93.5887 230.243 93.1888 230.444 92.8926 230.846C92.5964 231.243 92.4482 231.84 92.4482 232.636ZM102.192 230.541C101.989 230.507 101.779 230.49 101.563 230.49C100.857 230.49 100.381 230.761 100.135 231.303V236H98.5928V229.132H100.065L100.104 229.9C100.476 229.303 100.992 229.005 101.652 229.005C101.872 229.005 102.054 229.035 102.198 229.094L102.192 230.541ZM106.064 236.127C105.086 236.127 104.293 235.82 103.684 235.207C103.078 234.589 102.776 233.768 102.776 232.744V232.553C102.776 231.868 102.907 231.256 103.169 230.719C103.436 230.177 103.808 229.756 104.287 229.456C104.765 229.155 105.298 229.005 105.886 229.005C106.821 229.005 107.543 229.303 108.051 229.9C108.563 230.497 108.819 231.341 108.819 232.433V233.055H104.331C104.378 233.622 104.566 234.07 104.896 234.4C105.23 234.73 105.649 234.896 106.153 234.896C106.86 234.896 107.435 234.61 107.879 234.039L108.711 234.832C108.436 235.243 108.068 235.562 107.606 235.791C107.149 236.015 106.635 236.127 106.064 236.127ZM105.88 230.243C105.457 230.243 105.114 230.391 104.852 230.687C104.593 230.983 104.428 231.396 104.356 231.925H107.295V231.811C107.262 231.294 107.124 230.905 106.883 230.643C106.642 230.376 106.307 230.243 105.88 230.243Z" fill="white"/>
<path d="M119 228L122 231L119 234" stroke="white" stroke-linecap="round" stroke-linejoin="round"/>
<defs>
<filter id="filter0_d" x="40.4614" y="50.75" width="191.612" height="98.5137" filterUnits="userSpaceOnUse" color-interpolation-filters="sRGB">
<feFlood flood-opacity="0" result="BackgroundImageFix"/>
<feColorMatrix in="SourceAlpha" type="matrix" values="0 0 0 0 0 0 0 0 0 0 0 0 0 0 0 0 0 0 127 0"/>
<feOffset dy="1"/>
<feGaussianBlur stdDeviation="1.5"/>
<feColorMatrix type="matrix" values="0 0 0 0 0 0 0 0 0 0 0 0 0 0 0 0 0 0 0.14 0"/>
<feBlend mode="normal" in2="BackgroundImageFix" result="effect1_dropShadow"/>
<feBlend mode="normal" in="SourceGraphic" in2="effect1_dropShadow" result="shape"/>
</filter>
<linearGradient id="paint0_linear" x1="140" y1="0" x2="140" y2="289" gradientUnits="userSpaceOnUse">
<stop stop-color="#3ACAF8"/>
<stop offset="1" stop-color="#016AFF"/>
</linearGradient>
<linearGradient id="paint1_linear" x1="140" y1="0" x2="140" y2="289" gradientUnits="userSpaceOnUse">
<stop stop-color="#3ACAF8"/>
<stop offset="1" stop-color="#016AFF"/>
</linearGradient>
</defs>
</svg>
