<svg width="18" height="18" viewBox="0 0 18 18" fill="none" xmlns="http://www.w3.org/2000/svg">
<path fill-rule="evenodd" clip-rule="evenodd" d="M9.00003 6.86664C10.1782 6.86664 11.1334 7.82184 11.1334 8.99997C11.1334 10.1781 10.1782 11.1333 9.00003 11.1333C7.8219 11.1333 6.8667 10.1781 6.8667 8.99997C6.8667 7.82184 7.8219 6.86664 9.00003 6.86664V6.86664Z" stroke="#989EA3" stroke-width="1.2" stroke-linecap="round" stroke-linejoin="round"/>
<path fill-rule="evenodd" clip-rule="evenodd" d="M17 9C17 8.4112 16.5227 7.93333 15.9333 7.93333H14.7653C14.6133 7.10773 14.2912 6.34187 13.8325 5.67627L14.6571 4.85173C15.0736 4.4352 15.0736 3.76 14.6571 3.34347C14.2405 2.92693 13.5653 2.92693 13.1488 3.34347L12.3237 4.168C11.6581 3.7088 10.8923 3.38667 10.0667 3.23467V2.06667C10.0667 1.47787 9.58933 1 9 1C8.41067 1 7.93333 1.47733 7.93333 2.06667V3.23467C7.10773 3.38667 6.34187 3.7088 5.67627 4.16747L4.85173 3.34293C4.4352 2.9264 3.76 2.9264 3.34347 3.34293C2.92693 3.75947 2.92693 4.43467 3.34347 4.8512L4.168 5.67627C3.7088 6.34187 3.38667 7.10773 3.23467 7.93333H2.06667C1.47787 7.93333 1 8.41067 1 9C1 9.58933 1.47733 10.0667 2.06667 10.0667H3.23467C3.38667 10.8923 3.7088 11.6581 4.16747 12.3237L3.34293 13.1483C2.9264 13.5648 2.9264 14.24 3.34293 14.6565C3.75947 15.0731 4.43467 15.0731 4.8512 14.6565L5.67573 13.832C6.34133 14.2907 7.10667 14.6128 7.9328 14.7648V15.9333C7.9328 16.5227 8.41013 17 8.99947 17C9.58827 17 10.0661 16.5227 10.0661 15.9333V14.7653C10.8917 14.6133 11.6576 14.2912 12.3232 13.8325L13.1477 14.6571C13.5643 15.0736 14.2395 15.0736 14.656 14.6571C15.0725 14.2405 15.0725 13.5653 14.656 13.1488L13.8315 12.3243C14.2901 11.6587 14.6123 10.8933 14.7643 10.0672H15.9333C16.5227 10.0667 17 9.58933 17 9V9Z" stroke="#989EA3" stroke-width="1.2" stroke-linecap="round" stroke-linejoin="round"/>
</svg>
