<svg width="175" height="36" viewBox="0 0 175 36" fill="none" xmlns="http://www.w3.org/2000/svg">
<path d="M53.6721 4.96443C54.9827 4.96443 55.6499 6.29412 55.6499 7.35294C55.6499 8.46101 54.9351 9.74145 53.5768 9.74145H50.5029V4.96443H53.6721ZM47 18.7538H50.5029V12.8933H53.7436C57.4848 12.8933 59.1528 10.1601 59.1528 7.35294C59.1528 4.57045 57.4848 1.78796 53.7436 1.78796H47V18.7538Z" fill="#1B2733"/>
<path d="M64.4013 5.06293H67.3561C69.9773 5.06293 71.2879 7.50068 71.2879 10.3078C71.2879 13.0903 69.9773 15.4788 67.3561 15.4788H64.4013V5.06293ZM67.3561 18.7538C72.0742 18.7538 74.7669 15.1094 74.7669 10.3078C74.7669 5.48153 72.0742 1.78796 67.3561 1.78796H60.9223V18.7538H67.3561Z" fill="#1B2733"/>
<path d="M77.0552 18.7538H80.5581V11.9822H85.9196V8.83037H80.5581V4.96443H87.3255V1.78796H77.0552V18.7538Z" fill="#1B2733"/>
<path d="M93.6834 1.78796V18.7538H97.1624V1.78796H93.6834Z" fill="#1B2733"/>
<path d="M103.206 12.6717C103.206 10.9234 104.088 10.3324 105.255 10.3324C106.375 10.3324 107.185 11.0958 107.185 12.6224V18.7538C107.71 18.7538 109.949 18.7538 110.498 18.7538V11.8837C110.498 8.60875 108.925 7.00821 106.423 7.00821C105.112 7.00821 103.802 7.77155 103.206 8.92886V7.25445H99.8937V18.7538H103.206V12.6717Z" fill="#1B2733"/>
<path d="M115.8 18.7538C118.636 18.7538 118.636 18.7538 118.636 18.7538L123.354 7.25445H119.803L117.23 14.3953L114.632 7.25445H111.106L115.8 18.7538Z" fill="#1B2733"/>
<path d="M129.091 15.6019C127.733 15.6019 126.589 14.5677 126.589 12.9672C126.589 11.4159 127.733 10.357 129.091 10.357C130.473 10.357 131.617 11.4159 131.617 12.9672C131.617 14.5677 130.473 15.6019 129.091 15.6019ZM129.091 18.9508C132.236 18.9508 134.881 16.5869 134.881 12.9672C134.881 9.34747 132.236 7.00821 129.091 7.00821C125.946 7.00821 123.324 9.34747 123.324 12.9672C123.324 16.5869 125.946 18.9508 129.091 18.9508Z" fill="#1B2733"/>
<path d="M139.829 7.25445H136.541V18.7538H139.829V7.25445ZM136.112 2.99453C136.112 4.12722 137.065 5.01368 138.185 5.01368C139.305 5.01368 140.211 4.12722 140.211 2.99453C140.211 1.86183 139.305 1 138.185 1C137.065 1 136.112 1.86183 136.112 2.99453Z" fill="#1B2733"/>
<path d="M141.488 12.9672C141.488 16.5869 144.348 19 147.541 19C149.543 19 151.33 18.0889 152.378 16.5376L149.686 14.5677C149.233 15.3064 148.399 15.725 147.541 15.725C146.135 15.725 144.777 14.617 144.777 12.9672C144.777 11.3174 146.135 10.2832 147.541 10.2832C148.399 10.2832 149.233 10.7018 149.686 11.4405L152.378 9.44596C151.306 7.89466 149.519 7.00821 147.541 7.00821C144.348 7.00821 141.488 9.34747 141.488 12.9672Z" fill="#1B2733"/>
<path d="M161.637 14.9617C161.089 15.7004 160.112 16.0451 159.206 16.0451C158.038 16.0451 156.633 15.4542 156.466 14.1245H164.615C164.639 13.829 164.663 13.3611 164.663 13.0657C164.663 9.44596 162.137 7.00821 158.968 7.00821C155.775 7.00821 153.153 9.34747 153.153 12.9672C153.153 16.5869 155.775 19 158.968 19C160.85 19 162.923 18.3844 164.043 16.6607L161.637 14.9617ZM156.513 11.9822C156.799 10.5294 158.062 10.0123 158.992 10.0123C159.921 10.0123 161.16 10.5787 161.327 11.9822H156.513Z" fill="#1B2733"/>
<path d="M170.544 14.42C171.354 14.6416 171.64 14.9124 171.64 15.4049C171.64 15.9959 171.021 16.3406 170.282 16.3653C169.376 16.3653 168.661 15.7004 168.638 15.0356H165.54C165.564 17.5964 167.923 19 170.187 19C172.522 19 175 17.8427 175 15.4049C175 14.6662 174.666 12.8194 171.974 12.0561L170.091 11.539C169.424 11.3666 169.138 11.0219 169.114 10.6772C169.09 10.1601 169.567 9.81532 170.282 9.81532C170.806 9.81532 171.521 9.96306 171.545 10.8249H174.666C174.643 8.01778 172.307 7.00821 170.091 7.00821C167.756 7.00821 165.778 8.58413 165.754 10.2832C165.731 11.342 165.754 13.0903 169.09 14.026L170.544 14.42Z" fill="#1B2733"/>
<path d="M47.1767 32.2152C47.5776 32.8861 48.444 33.2532 49.2845 33.2532C50.9397 33.2532 52.3492 32.038 52.3492 30.1646C52.3492 28.2785 50.9656 27.0886 49.2975 27.0886C48.4181 27.0886 47.5776 27.4304 47.1767 28.1013V24H46V33.1266H47.1767V32.2152ZM47.1897 30.1519C47.1897 28.8861 48.2242 28.2152 49.194 28.2152C50.2802 28.2152 51.1466 28.9747 51.1466 30.1519C51.1466 31.3165 50.2802 32.1266 49.194 32.1266C48.1207 32.1266 47.1897 31.4051 47.1897 30.1519Z" fill="#1B2733" fill-opacity="0.75"/>
<path d="M55.0203 36L58.7704 27.2152H57.5161L55.7057 31.4937L53.8953 27.2152H52.641L55.0591 32.9494L53.7919 36H55.0203Z" fill="#1B2733" fill-opacity="0.75"/>
<path d="M67.0097 33.1266H68.1735V27.2152H67.0097V28.1013C66.6089 27.4304 65.7295 27.0886 64.889 27.0886C63.2338 27.0886 61.8243 28.2785 61.8243 30.1646C61.8243 32.038 63.2338 33.2532 64.889 33.2532C65.7295 33.2532 66.6089 32.8861 67.0097 32.2152V33.1266ZM66.9968 30.1519C66.9968 31.4051 66.0658 32.1266 64.9925 32.1266C63.9062 32.1266 63.0269 31.3165 63.0269 30.1519C63.0269 28.9747 63.9062 28.2152 64.9925 28.2152C65.9623 28.2152 66.9968 28.8861 66.9968 30.1519Z" fill="#1B2733" fill-opacity="0.75"/>
<path d="M69.3542 30.1519C69.3542 32.0253 70.8284 33.2532 72.5482 33.2532C73.4793 33.2532 74.3198 32.8987 74.8888 32.2911L73.9836 31.557C73.6215 31.9241 73.1043 32.1392 72.5482 32.1392C71.462 32.1392 70.518 31.3418 70.518 30.1519C70.518 28.962 71.462 28.2152 72.5482 28.2152C73.1043 28.2152 73.6215 28.4177 73.9836 28.7722L74.8759 28.038C74.3069 27.4304 73.4664 27.0886 72.5482 27.0886C70.8284 27.0886 69.3542 28.2785 69.3542 30.1519Z" fill="#1B2733" fill-opacity="0.75"/>
<path d="M78.5871 33.2532C80.307 33.2532 81.7553 32.0253 81.7553 30.1519C81.7553 28.2785 80.307 27.0886 78.5871 27.0886C76.8673 27.0886 75.4319 28.2785 75.4319 30.1519C75.4319 32.0253 76.8673 33.2532 78.5871 33.2532ZM78.5871 32.1392C77.5009 32.1392 76.5957 31.3544 76.5957 30.1519C76.5957 28.962 77.5009 28.2152 78.5871 28.2152C79.6734 28.2152 80.5785 28.962 80.5785 30.1519C80.5785 31.3544 79.6734 32.1392 78.5871 32.1392Z" fill="#1B2733" fill-opacity="0.75"/>
<path d="M89.5439 33.1266L91.781 27.2152H90.5267L89.0138 31.3544L87.5008 27.2152H86.3629L84.8499 31.3544L83.3369 27.2152H82.0826L84.3844 33.1266H85.3413L86.9318 28.7848L88.5741 33.1266H89.5439Z" fill="#1B2733" fill-opacity="0.75"/>
<path d="M93.2975 29.7089C93.4398 28.7215 94.2156 28.1266 95.2114 28.1266C96.1812 28.1266 96.9053 28.7215 97.0476 29.7089H93.2975ZM98.2114 30.1519C98.2114 28.2785 96.9312 27.0886 95.2114 27.0886C93.4915 27.0886 92.1208 28.2785 92.1208 30.1519C92.1208 32.0253 93.4915 33.2532 95.2114 33.2532C96.3752 33.2532 97.4743 32.7215 97.9916 31.6835C97.6683 31.557 97.2933 31.4304 96.9829 31.3038C96.6467 31.8861 95.9743 32.2152 95.2501 32.2152C94.2286 32.2152 93.4398 31.5949 93.2975 30.6076H98.1985C98.2114 30.481 98.2114 30.2911 98.2114 30.1519Z" fill="#1B2733" fill-opacity="0.75"/>
<path d="M100.496 32.2152C100.897 32.8861 101.763 33.2532 102.604 33.2532C104.259 33.2532 105.668 32.038 105.668 30.1646C105.668 28.2785 104.285 27.0886 102.617 27.0886C101.737 27.0886 100.897 27.4304 100.496 28.1013V24H99.3191V33.1266H100.496V32.2152ZM100.509 30.1519C100.509 28.8861 101.543 28.2152 102.513 28.2152C103.599 28.2152 104.466 28.9747 104.466 30.1519C104.466 31.3165 103.599 32.1266 102.513 32.1266C101.44 32.1266 100.509 31.4051 100.509 30.1519Z" fill="#1B2733" fill-opacity="0.75"/>
<path d="M108.22 30.519L109.047 30.7089C109.487 30.8101 109.862 31.0253 109.849 31.4557C109.836 31.8861 109.474 32.1899 108.931 32.2278C108.543 32.2532 108.233 32.1772 107.974 32.0253C107.69 31.8861 107.521 31.6076 107.483 31.3544H106.409C106.448 32.5696 107.573 33.2532 108.659 33.2532C109.914 33.2532 111 32.5823 111 31.481C111 30.8101 110.69 30.0633 109.435 29.7595L108.543 29.5443C108.233 29.4557 107.948 29.3291 107.832 29.0886C107.767 28.9494 107.767 28.8101 107.819 28.6203C107.909 28.3038 108.284 28.0886 108.724 28.0886C109.19 28.0886 109.603 28.3165 109.668 28.7595H110.793C110.69 27.557 109.72 27.0886 108.698 27.0886C107.625 27.0886 106.694 27.7342 106.603 28.5949C106.5 29.6835 107.121 30.2278 108.22 30.519Z" fill="#1B2733" fill-opacity="0.75"/>
<path fill-rule="evenodd" clip-rule="evenodd" d="M0 18C0 8.05887 8.28273 0 18.5 0C28.7173 0 37 8.05887 37 18C37 27.9411 28.7173 36 18.5 36H0V18ZM18.5 9.81818C13.8558 9.81818 10.0909 13.4813 10.0909 18V26.1818H18.5C23.1442 26.1818 26.9091 22.5187 26.9091 18C26.9091 13.4813 23.1442 9.81818 18.5 9.81818Z" fill="#006AFF"/>
</svg>
