<svg width="32" height="32" viewBox="0 0 32 32" fill="none" xmlns="http://www.w3.org/2000/svg">
<rect width="32" height="32" rx="3" fill="#006AFF"/>
<rect x="0.25" y="0.25" width="31.5" height="31.5" rx="2.75" stroke="#006AFF" stroke-opacity="0.12" stroke-width="0.5"/>
<path d="M18 8H11.6C11.1757 8 10.7687 8.16857 10.4686 8.46863C10.1686 8.76869 10 9.17565 10 9.6V22.4C10 22.8243 10.1686 23.2313 10.4686 23.5314C10.7687 23.8314 11.1757 24 11.6 24H21.2C21.6243 24 22.0313 23.8314 22.3314 23.5314C22.6314 23.2313 22.8 22.8243 22.8 22.4V12.8L18 8Z" stroke="white" stroke-width="1.2" stroke-linecap="round" stroke-linejoin="round"/>
<path d="M18 8V12.8H22.8" stroke="white" stroke-width="1.2" stroke-linecap="round" stroke-linejoin="round"/>
<path d="M19.6 16.8H13.2" stroke="white" stroke-width="1.2" stroke-linecap="round" stroke-linejoin="round"/>
<path d="M19.6 20H13.2" stroke="white" stroke-width="1.2" stroke-linecap="round" stroke-linejoin="round"/>
<path d="M14.8 13.6H14H13.2" stroke="white" stroke-width="1.2" stroke-linecap="round" stroke-linejoin="round"/>
</svg>
