<svg width="280" height="116" viewBox="0 0 280 116" fill="none" xmlns="http://www.w3.org/2000/svg">
<rect width="280" height="116" rx="10" fill="url(#paint0_linear)"/>
<g opacity="0.12">
<mask id="mask0" mask-type="alpha" maskUnits="userSpaceOnUse" x="0" y="0" width="280" height="116">
<rect width="280" height="116" rx="3" fill="url(#paint1_linear)"/>
<rect x="0.5" y="0.5" width="279" height="115" rx="2.5" stroke="#1B2733" stroke-opacity="0.1"/>
</mask>
<g mask="url(#mask0)">
<circle cx="-21" cy="-35" r="132" fill="white"/>
<circle cx="272" cy="116" r="132" fill="white"/>
</g>
</g>
<path d="M35.9453 51.2109C35.8568 52.4349 35.4036 53.3984 34.5859 54.1016C33.7734 54.8047 32.7005 55.1562 31.3672 55.1562C29.9089 55.1562 28.7604 54.6667 27.9219 53.6875C27.0885 52.7031 26.6719 51.3542 26.6719 49.6406V48.9453C26.6719 47.8516 26.8646 46.888 27.25 46.0547C27.6354 45.2214 28.1849 44.5833 28.8984 44.1406C29.6172 43.6927 30.4505 43.4688 31.3984 43.4688C32.7109 43.4688 33.7682 43.8203 34.5703 44.5234C35.3724 45.2266 35.8359 46.2135 35.9609 47.4844H33.6172C33.5599 46.75 33.3542 46.2188 33 45.8906C32.651 45.5573 32.1172 45.3906 31.3984 45.3906C30.6172 45.3906 30.0312 45.6719 29.6406 46.2344C29.2552 46.7917 29.0573 47.6589 29.0469 48.8359V49.6953C29.0469 50.9245 29.2318 51.8229 29.6016 52.3906C29.9766 52.9583 30.5651 53.2422 31.3672 53.2422C32.0911 53.2422 32.6302 53.0781 32.9844 52.75C33.3438 52.4167 33.5495 51.9036 33.6016 51.2109H35.9453ZM39.5391 47.4688C40.138 46.75 40.8906 46.3906 41.7969 46.3906C43.6302 46.3906 44.5599 47.4557 44.5859 49.5859V55H42.3281V49.6484C42.3281 49.1641 42.224 48.8073 42.0156 48.5781C41.8073 48.3438 41.4609 48.2266 40.9766 48.2266C40.3151 48.2266 39.8359 48.4818 39.5391 48.9922V55H37.2812V43H39.5391V47.4688ZM50.1797 55.1562C48.9401 55.1562 47.9297 54.776 47.1484 54.0156C46.3724 53.2552 45.9844 52.2422 45.9844 50.9766V50.7578C45.9844 49.9089 46.1484 49.151 46.4766 48.4844C46.8047 47.8125 47.2682 47.2969 47.8672 46.9375C48.4714 46.5729 49.1589 46.3906 49.9297 46.3906C51.0859 46.3906 51.9948 46.7552 52.6562 47.4844C53.3229 48.2135 53.6562 49.2474 53.6562 50.5859V51.5078H48.2734C48.3464 52.0599 48.5651 52.5026 48.9297 52.8359C49.2995 53.1693 49.7656 53.3359 50.3281 53.3359C51.1979 53.3359 51.8776 53.0208 52.3672 52.3906L53.4766 53.6328C53.138 54.112 52.6797 54.487 52.1016 54.7578C51.5234 55.0234 50.8828 55.1562 50.1797 55.1562ZM49.9219 48.2188C49.474 48.2188 49.1094 48.3698 48.8281 48.6719C48.5521 48.974 48.375 49.4062 48.2969 49.9688H51.4375V49.7891C51.4271 49.2891 51.2917 48.9036 51.0312 48.6328C50.7708 48.3568 50.401 48.2188 49.9219 48.2188ZM58.4609 53.3359C58.8776 53.3359 59.2161 53.2214 59.4766 52.9922C59.737 52.763 59.8724 52.4583 59.8828 52.0781H62C61.9948 52.651 61.8385 53.1771 61.5312 53.6562C61.224 54.1302 60.8021 54.5 60.2656 54.7656C59.7344 55.026 59.1458 55.1562 58.5 55.1562C57.2917 55.1562 56.3385 54.7734 55.6406 54.0078C54.9427 53.237 54.5938 52.1745 54.5938 50.8203V50.6719C54.5938 49.3698 54.9401 48.3307 55.6328 47.5547C56.3255 46.7786 57.276 46.3906 58.4844 46.3906C59.5417 46.3906 60.388 46.6927 61.0234 47.2969C61.6641 47.8958 61.9896 48.6953 62 49.6953H59.8828C59.8724 49.2578 59.737 48.9036 59.4766 48.6328C59.2161 48.3568 58.8724 48.2188 58.4453 48.2188C57.9193 48.2188 57.5208 48.4115 57.25 48.7969C56.9844 49.1771 56.8516 49.7969 56.8516 50.6562V50.8906C56.8516 51.7604 56.9844 52.3854 57.25 52.7656C57.5156 53.1458 57.9193 53.3359 58.4609 53.3359ZM66.3594 51.6094L65.5469 52.4219V55H63.2891V43H65.5469V49.6484L65.9844 49.0859L68.1484 46.5469H70.8594L67.8047 50.0703L71.125 55H68.5312L66.3594 51.6094ZM85.3125 49.5703C85.3125 50.6901 85.1146 51.6719 84.7188 52.5156C84.3229 53.3594 83.7552 54.0104 83.0156 54.4688C82.2812 54.9271 81.4375 55.1562 80.4844 55.1562C79.5417 55.1562 78.7005 54.9297 77.9609 54.4766C77.2214 54.0234 76.6484 53.3776 76.2422 52.5391C75.8359 51.6953 75.6302 50.7266 75.625 49.6328V49.0703C75.625 47.9505 75.8255 46.9661 76.2266 46.1172C76.6328 45.263 77.2031 44.6094 77.9375 44.1562C78.6771 43.6979 79.5208 43.4688 80.4688 43.4688C81.4167 43.4688 82.2578 43.6979 82.9922 44.1562C83.7318 44.6094 84.3021 45.263 84.7031 46.1172C85.1094 46.9661 85.3125 47.9479 85.3125 49.0625V49.5703ZM82.9375 49.0547C82.9375 47.862 82.724 46.9557 82.2969 46.3359C81.8698 45.7161 81.2604 45.4062 80.4688 45.4062C79.6823 45.4062 79.0755 45.7135 78.6484 46.3281C78.2214 46.9375 78.0052 47.8333 78 49.0156V49.5703C78 50.7318 78.2135 51.6328 78.6406 52.2734C79.0677 52.9141 79.6823 53.2344 80.4844 53.2344C81.2708 53.2344 81.875 52.9271 82.2969 52.3125C82.7188 51.6927 82.9323 50.7917 82.9375 49.6094V49.0547ZM91.9297 54.1406C91.3724 54.8177 90.6016 55.1562 89.6172 55.1562C88.7109 55.1562 88.0182 54.8958 87.5391 54.375C87.0651 53.8542 86.8229 53.0911 86.8125 52.0859V46.5469H89.0703V52.0078C89.0703 52.888 89.4714 53.3281 90.2734 53.3281C91.0391 53.3281 91.5651 53.0625 91.8516 52.5312V46.5469H94.1172V55H91.9922L91.9297 54.1406ZM98.5234 44.4688V46.5469H99.9688V48.2031H98.5234V52.4219C98.5234 52.7344 98.5833 52.9583 98.7031 53.0938C98.8229 53.2292 99.0521 53.2969 99.3906 53.2969C99.6406 53.2969 99.862 53.2786 100.055 53.2422V54.9531C99.612 55.0885 99.1562 55.1562 98.6875 55.1562C97.1042 55.1562 96.2969 54.3568 96.2656 52.7578V48.2031H95.0312V46.5469H96.2656V44.4688H98.5234ZM114.703 49.5703C114.703 50.6901 114.505 51.6719 114.109 52.5156C113.714 53.3594 113.146 54.0104 112.406 54.4688C111.672 54.9271 110.828 55.1562 109.875 55.1562C108.932 55.1562 108.091 54.9297 107.352 54.4766C106.612 54.0234 106.039 53.3776 105.633 52.5391C105.227 51.6953 105.021 50.7266 105.016 49.6328V49.0703C105.016 47.9505 105.216 46.9661 105.617 46.1172C106.023 45.263 106.594 44.6094 107.328 44.1562C108.068 43.6979 108.911 43.4688 109.859 43.4688C110.807 43.4688 111.648 43.6979 112.383 44.1562C113.122 44.6094 113.693 45.263 114.094 46.1172C114.5 46.9661 114.703 47.9479 114.703 49.0625V49.5703ZM112.328 49.0547C112.328 47.862 112.115 46.9557 111.688 46.3359C111.26 45.7161 110.651 45.4062 109.859 45.4062C109.073 45.4062 108.466 45.7135 108.039 46.3281C107.612 46.9375 107.396 47.8333 107.391 49.0156V49.5703C107.391 50.7318 107.604 51.6328 108.031 52.2734C108.458 52.9141 109.073 53.2344 109.875 53.2344C110.661 53.2344 111.266 52.9271 111.688 52.3125C112.109 51.6927 112.323 50.7917 112.328 49.6094V49.0547ZM121.32 54.1406C120.763 54.8177 119.992 55.1562 119.008 55.1562C118.102 55.1562 117.409 54.8958 116.93 54.375C116.456 53.8542 116.214 53.0911 116.203 52.0859V46.5469H118.461V52.0078C118.461 52.888 118.862 53.3281 119.664 53.3281C120.43 53.3281 120.956 53.0625 121.242 52.5312V46.5469H123.508V55H121.383L121.32 54.1406ZM129.961 48.6641C129.654 48.6224 129.383 48.6016 129.148 48.6016C128.294 48.6016 127.734 48.8906 127.469 49.4688V55H125.211V46.5469H127.344L127.406 47.5547C127.859 46.7786 128.487 46.3906 129.289 46.3906C129.539 46.3906 129.773 46.4245 129.992 46.4922L129.961 48.6641ZM29.3594 72.9922V77H27.0156V65.625H31.4531C32.3073 65.625 33.0573 65.7812 33.7031 66.0938C34.3542 66.4062 34.8542 66.8516 35.2031 67.4297C35.5521 68.0026 35.7266 68.6562 35.7266 69.3906C35.7266 70.5052 35.3438 71.3854 34.5781 72.0312C33.8177 72.6719 32.763 72.9922 31.4141 72.9922H29.3594ZM29.3594 71.0938H31.4531C32.0729 71.0938 32.5443 70.9479 32.8672 70.6562C33.1953 70.3646 33.3594 69.9479 33.3594 69.4062C33.3594 68.849 33.1953 68.3984 32.8672 68.0547C32.5391 67.7109 32.0859 67.5339 31.5078 67.5234H29.3594V71.0938ZM41.9453 70.6641C41.638 70.6224 41.3672 70.6016 41.1328 70.6016C40.2786 70.6016 39.7188 70.8906 39.4531 71.4688V77H37.1953V68.5469H39.3281L39.3906 69.5547C39.8438 68.7786 40.4714 68.3906 41.2734 68.3906C41.5234 68.3906 41.7578 68.4245 41.9766 68.4922L41.9453 70.6641ZM46.7734 77.1562C45.5339 77.1562 44.5234 76.776 43.7422 76.0156C42.9661 75.2552 42.5781 74.2422 42.5781 72.9766V72.7578C42.5781 71.9089 42.7422 71.151 43.0703 70.4844C43.3984 69.8125 43.862 69.2969 44.4609 68.9375C45.0651 68.5729 45.7526 68.3906 46.5234 68.3906C47.6797 68.3906 48.5885 68.7552 49.25 69.4844C49.9167 70.2135 50.25 71.2474 50.25 72.5859V73.5078H44.8672C44.9401 74.0599 45.1589 74.5026 45.5234 74.8359C45.8932 75.1693 46.3594 75.3359 46.9219 75.3359C47.7917 75.3359 48.4714 75.0208 48.9609 74.3906L50.0703 75.6328C49.7318 76.112 49.2734 76.487 48.6953 76.7578C48.1172 77.0234 47.4766 77.1562 46.7734 77.1562ZM46.5156 70.2188C46.0677 70.2188 45.7031 70.3698 45.4219 70.6719C45.1458 70.974 44.9688 71.4062 44.8906 71.9688H48.0312V71.7891C48.0208 71.2891 47.8854 70.9036 47.625 70.6328C47.3646 70.3568 46.9948 70.2188 46.5156 70.2188ZM53.6562 68.5469L53.7266 69.4922C54.3255 68.7578 55.1354 68.3906 56.1562 68.3906C57.2448 68.3906 57.9922 68.8203 58.3984 69.6797C58.9922 68.8203 59.8385 68.3906 60.9375 68.3906C61.8542 68.3906 62.5365 68.6589 62.9844 69.1953C63.4323 69.7266 63.6562 70.5286 63.6562 71.6016V77H61.3906V71.6094C61.3906 71.1302 61.2969 70.7812 61.1094 70.5625C60.9219 70.3385 60.5911 70.2266 60.1172 70.2266C59.4401 70.2266 58.9714 70.5495 58.7109 71.1953L58.7188 77H56.4609V71.6172C56.4609 71.1276 56.3646 70.7734 56.1719 70.5547C55.9792 70.3359 55.651 70.2266 55.1875 70.2266C54.5469 70.2266 54.0833 70.4922 53.7969 71.0234V77H51.5391V68.5469H53.6562ZM67.7812 77H65.5156V68.5469H67.7812V77ZM65.3828 66.3594C65.3828 66.0208 65.4948 65.7422 65.7188 65.5234C65.9479 65.3047 66.2578 65.1953 66.6484 65.1953C67.0339 65.1953 67.3411 65.3047 67.5703 65.5234C67.7995 65.7422 67.9141 66.0208 67.9141 66.3594C67.9141 66.7031 67.7969 66.9844 67.5625 67.2031C67.3333 67.4219 67.0286 67.5312 66.6484 67.5312C66.2682 67.5312 65.9609 67.4219 65.7266 67.2031C65.4974 66.9844 65.3828 66.7031 65.3828 66.3594ZM74.7109 76.1406C74.1536 76.8177 73.3828 77.1562 72.3984 77.1562C71.4922 77.1562 70.7995 76.8958 70.3203 76.375C69.8464 75.8542 69.6042 75.0911 69.5938 74.0859V68.5469H71.8516V74.0078C71.8516 74.888 72.2526 75.3281 73.0547 75.3281C73.8203 75.3281 74.3464 75.0625 74.6328 74.5312V68.5469H76.8984V77H74.7734L74.7109 76.1406ZM80.7188 68.5469L80.7891 69.4922C81.388 68.7578 82.1979 68.3906 83.2188 68.3906C84.3073 68.3906 85.0547 68.8203 85.4609 69.6797C86.0547 68.8203 86.901 68.3906 88 68.3906C88.9167 68.3906 89.599 68.6589 90.0469 69.1953C90.4948 69.7266 90.7188 70.5286 90.7188 71.6016V77H88.4531V71.6094C88.4531 71.1302 88.3594 70.7812 88.1719 70.5625C87.9844 70.3385 87.6536 70.2266 87.1797 70.2266C86.5026 70.2266 86.0339 70.5495 85.7734 71.1953L85.7812 77H83.5234V71.6172C83.5234 71.1276 83.4271 70.7734 83.2344 70.5547C83.0417 70.3359 82.7135 70.2266 82.25 70.2266C81.6094 70.2266 81.1458 70.4922 80.8594 71.0234V77H78.6016V68.5469H80.7188ZM100.797 74.1797L103.375 65.625H105.984L102.023 77H99.5781L95.6328 65.625H98.2344L100.797 74.1797ZM110.461 77.1562C109.221 77.1562 108.211 76.776 107.43 76.0156C106.654 75.2552 106.266 74.2422 106.266 72.9766V72.7578C106.266 71.9089 106.43 71.151 106.758 70.4844C107.086 69.8125 107.549 69.2969 108.148 68.9375C108.753 68.5729 109.44 68.3906 110.211 68.3906C111.367 68.3906 112.276 68.7552 112.938 69.4844C113.604 70.2135 113.938 71.2474 113.938 72.5859V73.5078H108.555C108.628 74.0599 108.846 74.5026 109.211 74.8359C109.581 75.1693 110.047 75.3359 110.609 75.3359C111.479 75.3359 112.159 75.0208 112.648 74.3906L113.758 75.6328C113.419 76.112 112.961 76.487 112.383 76.7578C111.805 77.0234 111.164 77.1562 110.461 77.1562ZM110.203 70.2188C109.755 70.2188 109.391 70.3698 109.109 70.6719C108.833 70.974 108.656 71.4062 108.578 71.9688H111.719V71.7891C111.708 71.2891 111.573 70.9036 111.312 70.6328C111.052 70.3568 110.682 70.2188 110.203 70.2188ZM119.977 70.6641C119.669 70.6224 119.398 70.6016 119.164 70.6016C118.31 70.6016 117.75 70.8906 117.484 71.4688V77H115.227V68.5469H117.359L117.422 69.5547C117.875 68.7786 118.503 68.3906 119.305 68.3906C119.555 68.3906 119.789 68.4245 120.008 68.4922L119.977 70.6641ZM125.648 74.6641C125.648 74.388 125.51 74.1719 125.234 74.0156C124.964 73.8542 124.526 73.7109 123.922 73.5859C121.911 73.1641 120.906 72.3099 120.906 71.0234C120.906 70.2734 121.216 69.6484 121.836 69.1484C122.461 68.6432 123.276 68.3906 124.281 68.3906C125.354 68.3906 126.211 68.6432 126.852 69.1484C127.497 69.6536 127.82 70.3099 127.82 71.1172H125.562C125.562 70.7943 125.458 70.5286 125.25 70.3203C125.042 70.1068 124.716 70 124.273 70C123.893 70 123.599 70.0859 123.391 70.2578C123.182 70.4297 123.078 70.6484 123.078 70.9141C123.078 71.1641 123.195 71.3672 123.43 71.5234C123.669 71.6745 124.07 71.8073 124.633 71.9219C125.195 72.0312 125.669 72.1562 126.055 72.2969C127.247 72.7344 127.844 73.4922 127.844 74.5703C127.844 75.3411 127.513 75.9661 126.852 76.4453C126.19 76.9193 125.336 77.1562 124.289 77.1562C123.581 77.1562 122.951 77.0312 122.398 76.7812C121.852 76.526 121.422 76.1797 121.109 75.7422C120.797 75.2995 120.641 74.8229 120.641 74.3125H122.781C122.802 74.7135 122.951 75.0208 123.227 75.2344C123.503 75.4479 123.872 75.5547 124.336 75.5547C124.768 75.5547 125.094 75.474 125.312 75.3125C125.536 75.1458 125.648 74.9297 125.648 74.6641ZM131.688 77H129.422V68.5469H131.688V77ZM129.289 66.3594C129.289 66.0208 129.401 65.7422 129.625 65.5234C129.854 65.3047 130.164 65.1953 130.555 65.1953C130.94 65.1953 131.247 65.3047 131.477 65.5234C131.706 65.7422 131.82 66.0208 131.82 66.3594C131.82 66.7031 131.703 66.9844 131.469 67.2031C131.24 67.4219 130.935 67.5312 130.555 67.5312C130.174 67.5312 129.867 67.4219 129.633 67.2031C129.404 66.9844 129.289 66.7031 129.289 66.3594ZM133.203 72.6953C133.203 71.8568 133.365 71.1094 133.688 70.4531C134.01 69.7969 134.474 69.2891 135.078 68.9297C135.688 68.5703 136.393 68.3906 137.195 68.3906C138.336 68.3906 139.266 68.7396 139.984 69.4375C140.708 70.1354 141.112 71.0833 141.195 72.2812L141.211 72.8594C141.211 74.1562 140.849 75.1979 140.125 75.9844C139.401 76.7656 138.43 77.1562 137.211 77.1562C135.992 77.1562 135.018 76.7656 134.289 75.9844C133.565 75.2031 133.203 74.1406 133.203 72.7969V72.6953ZM135.461 72.8594C135.461 73.6615 135.612 74.276 135.914 74.7031C136.216 75.125 136.648 75.3359 137.211 75.3359C137.758 75.3359 138.185 75.1276 138.492 74.7109C138.799 74.2891 138.953 73.6172 138.953 72.6953C138.953 71.9089 138.799 71.2995 138.492 70.8672C138.185 70.4349 137.753 70.2188 137.195 70.2188C136.643 70.2188 136.216 70.4349 135.914 70.8672C135.612 71.2943 135.461 71.9583 135.461 72.8594ZM144.68 68.5469L144.75 69.5234C145.354 68.7682 146.164 68.3906 147.18 68.3906C148.076 68.3906 148.742 68.6536 149.18 69.1797C149.617 69.7057 149.841 70.4922 149.852 71.5391V77H147.594V71.5938C147.594 71.1146 147.49 70.7682 147.281 70.5547C147.073 70.3359 146.727 70.2266 146.242 70.2266C145.607 70.2266 145.13 70.4974 144.812 71.0391V77H142.555V68.5469H144.68ZM153.867 73.5078H151.992L151.727 65.625H154.133L153.867 73.5078ZM152.93 74.7422C153.31 74.7422 153.615 74.8542 153.844 75.0781C154.078 75.3021 154.195 75.5885 154.195 75.9375C154.195 76.2812 154.078 76.5651 153.844 76.7891C153.615 77.013 153.31 77.125 152.93 77.125C152.555 77.125 152.25 77.013 152.016 76.7891C151.786 76.5651 151.672 76.2812 151.672 75.9375C151.672 75.5938 151.786 75.3099 152.016 75.0859C152.25 74.8568 152.555 74.7422 152.93 74.7422Z" fill="white"/>
<path d="M183.4 66.2674C185.514 62.1197 197.255 60.589 202.862 60.3422L204.303 102.559H208.868L206.225 115.891C196.855 115.973 176.24 116.089 168.743 115.891C161.247 115.694 162.256 107.415 163.698 103.3C169.384 92.6839 181.285 70.415 183.4 66.2674Z" fill="#FFDD9B"/>
<path d="M202.947 60.3422H205.825H221.895L221.175 114.816H204.386L202.947 60.3422Z" fill="white"/>
<path d="M202.827 40.3675V29.3814L207.9 27.1842L223.844 30.358V36.7055C223.844 36.9496 222.878 41.5882 225.294 40.3675C227.709 39.1468 229.4 41.8323 228.917 44.5178C228.434 47.2033 225.777 47.9357 223.844 47.4474C224.086 52.5742 221.67 54.039 221.428 54.7715C221.187 55.5039 216.114 59.6542 209.832 57.2128C204.919 55.3032 203.455 50.1263 203.317 47.6148C203.186 47.694 202.74 47.6993 201.619 47.4474C199.445 46.9591 197.995 45.4943 198.237 42.3206C198.43 39.7816 201.377 39.9606 202.827 40.3675Z" fill="#FFB5B5"/>
<path d="M217.793 108.479C216.222 106.866 210.592 105.716 207.973 105.342L206.5 113.632H219.512C219.594 112.586 219.365 110.092 217.793 108.479Z" fill="#FFB5B5"/>
<path d="M194.658 80.4738L181.631 102.974H188.272L194.658 80.4738Z" fill="#D5A342"/>
<path d="M242.92 67.2378C239.986 61.9183 228.17 60.4243 222.628 60.3422L221.895 116H226.784L259.789 97.5295C255.389 89.6488 245.854 72.5573 242.92 67.2378Z" fill="#FFDD9B"/>
<path d="M199.395 60.3422L200.579 102.974" stroke="black" stroke-opacity="0.3" stroke-linecap="round" stroke-linejoin="round"/>
<path d="M225.447 61.5264L224.263 105.342" stroke="black" stroke-opacity="0.3" stroke-linecap="round" stroke-linejoin="round"/>
<path d="M206.5 63.7959V55.6053C211.131 59.8452 217.114 57.6931 219.526 56.0871V63.7959C219.285 64.8398 217.741 67.0239 213.495 67.4094C209.25 67.7948 207.063 65.161 206.5 63.7959Z" fill="#FFB5B5"/>
<path d="M219.035 58.3574C211.76 60.559 207.647 57.7021 206.5 55.9985C212.202 59.1437 217.56 57.0469 219.526 55.6053C219.362 55.7364 219.035 56.4703 219.035 58.3574Z" fill="#E28D8D"/>
<path d="M267.151 84.0264H224.719C223.749 84.0264 223.183 85.1881 223.021 85.7689L216.717 111.658H199.502C199.421 111.99 199.308 112.953 199.502 114.148C199.696 115.342 200.391 115.807 200.714 115.89C218.819 115.973 255.707 116.089 258.422 115.89C261.138 115.691 261.817 114.645 261.817 114.148C263.595 105.933 267.297 89.0051 267.879 87.0136C268.461 85.0221 267.636 84.1923 267.151 84.0264Z" fill="#1E144A"/>
<path d="M210.869 50.5C211.367 50.94 213.013 51.7905 215.605 51.6732" stroke="black" stroke-linecap="round" stroke-linejoin="round"/>
<path d="M210.536 31.3004C208.881 29.4521 209.118 29.6832 206.518 29.4521C206.36 29.1441 207.18 28.297 211.718 27.3728C216.256 26.4487 222.748 29.1441 225.427 30.6073C225.584 31.2234 224.907 32.9176 220.936 34.7659C215.972 37.0762 212.19 33.1486 210.536 31.3004Z" fill="#E28D8D"/>
<path d="M212.421 46.1316L213.131 41.3948L214.789 46.1316H212.421Z" fill="#F86880" stroke="#F86880" stroke-linecap="round" stroke-linejoin="round"/>
<path d="M209.92 29.657C203.054 26.7825 203.299 36.2845 203.544 41.3948C202.809 40.8358 199.572 38.1849 198.395 32.0525C196.924 24.387 204.771 26.9582 203.544 26.0001C202.318 25.0419 204.28 23.6684 204.771 22.2311C205.261 20.7938 209.92 16.2424 216.541 21.0334C223.162 25.8243 226.104 23.9079 226.595 29.657C226.987 34.2563 224.143 39.3986 222.671 41.3948C222.344 40.197 221.69 36.6518 221.69 32.0525C213.844 34.4479 218.503 33.2502 209.92 29.657Z" fill="#1E144A"/>
<path d="M200.21 42.5887C201.287 42.5101 203.505 42.8718 203.763 44.9474" stroke="#1E144A" stroke-width="0.75" stroke-linecap="round" stroke-linejoin="round"/>
<path d="M226.631 42.5887C225.914 42.5101 224.435 42.8718 224.263 44.9474" stroke="#1E144A" stroke-width="0.75" stroke-linecap="round" stroke-linejoin="round"/>
<path d="M205.316 36.658C206.039 36.658 207.763 36.658 208.868 36.658" stroke="#1E144A" stroke-linecap="round" stroke-linejoin="round"/>
<path d="M215.507 35.8631C216.452 35.7659 218.651 35.7492 219.879 36.4601" stroke="#1E144A" stroke-linecap="round" stroke-linejoin="round"/>
<circle cx="208.774" cy="41.3006" r="1.09" fill="#1E144A"/>
<circle cx="218.248" cy="41.3006" r="1.09" fill="#1E144A"/>
<path opacity="0.7" d="M248.631 98.2368C248.631 99.1704 247.64 100.105 246.171 100.105C244.702 100.105 243.71 99.1704 243.71 98.2368C243.71 97.3033 244.702 96.3684 246.171 96.3684C247.64 96.3684 248.631 97.3033 248.631 98.2368Z" stroke="white"/>
<g filter="url(#filter0_d)">
<path d="M251.094 31.6522C251.094 26.1294 255.571 21.6522 261.094 21.6522H264C269.523 21.6522 274 26.1294 274 31.6522V36.0205C274 41.5433 269.523 46.0205 264 46.0205H251.094V31.6522Z" fill="white"/>
</g>
<circle cx="262.303" cy="30.9122" r="4.38628" fill="#64A15E"/>
<line x1="256.455" y1="37.2227" x2="268.639" y2="37.2227" stroke="#63A05D" stroke-width="2"/>
<line x1="258.404" y1="39.6594" x2="267.177" y2="39.6594" stroke="#63A05D" stroke-width="2"/>
<path d="M262.668 31.8888C262.668 31.7457 262.628 31.6323 262.548 31.5485C262.469 31.463 262.335 31.3845 262.145 31.3129C261.954 31.2414 261.79 31.1707 261.652 31.1009C261.515 31.0293 261.396 30.9482 261.296 30.8574C261.199 30.7649 261.122 30.6567 261.066 30.5328C261.012 30.4089 260.985 30.2615 260.985 30.0905C260.985 29.7955 261.079 29.5538 261.268 29.3654C261.456 29.1769 261.706 29.0669 262.019 29.0355V28.4753H262.438V29.0434C262.747 29.087 262.988 29.2161 263.163 29.4308C263.337 29.6437 263.425 29.9203 263.425 30.2606H262.668C262.668 30.0512 262.624 29.895 262.537 29.792C262.452 29.6873 262.336 29.635 262.192 29.635C262.049 29.635 261.938 29.676 261.859 29.758C261.781 29.8383 261.741 29.95 261.741 30.0931C261.741 30.2257 261.78 30.3322 261.857 30.4124C261.933 30.4927 262.076 30.5747 262.283 30.6585C262.493 30.7423 262.665 30.8217 262.799 30.8967C262.933 30.97 263.047 31.0538 263.139 31.148C263.232 31.2405 263.302 31.3469 263.351 31.4674C263.4 31.586 263.425 31.7248 263.425 31.8836C263.425 32.1802 263.332 32.4211 263.147 32.606C262.962 32.791 262.707 32.9001 262.383 32.9333V33.4542H261.967V32.9359C261.609 32.8975 261.331 32.771 261.134 32.5563C260.939 32.3399 260.841 32.0528 260.841 31.6951H261.597C261.597 31.9028 261.646 32.0624 261.744 32.1741C261.843 32.2841 261.986 32.339 262.171 32.339C262.324 32.339 262.446 32.2989 262.535 32.2186C262.624 32.1366 262.668 32.0267 262.668 31.8888Z" fill="white"/>
<defs>
<filter id="filter0_d" x="247.094" y="21.6522" width="30.9061" height="32.3682" filterUnits="userSpaceOnUse" color-interpolation-filters="sRGB">
<feFlood flood-opacity="0" result="BackgroundImageFix"/>
<feColorMatrix in="SourceAlpha" type="matrix" values="0 0 0 0 0 0 0 0 0 0 0 0 0 0 0 0 0 0 127 0"/>
<feOffset dy="4"/>
<feGaussianBlur stdDeviation="2"/>
<feColorMatrix type="matrix" values="0 0 0 0 0 0 0 0 0 0 0 0 0 0 0 0 0 0 0.08 0"/>
<feBlend mode="normal" in2="BackgroundImageFix" result="effect1_dropShadow"/>
<feBlend mode="normal" in="SourceGraphic" in2="effect1_dropShadow" result="shape"/>
</filter>
<linearGradient id="paint0_linear" x1="140" y1="0" x2="140" y2="116" gradientUnits="userSpaceOnUse">
<stop stop-color="#00C2FF"/>
<stop offset="0.96875" stop-color="#006AFF"/>
</linearGradient>
<linearGradient id="paint1_linear" x1="5.999e-07" y1="12.5" x2="275" y2="128.5" gradientUnits="userSpaceOnUse">
<stop stop-color="#006AFF"/>
<stop offset="1" stop-color="#55ADFF"/>
</linearGradient>
</defs>
</svg>
